<svg width="72" height="72" viewBox="0 0 72 72" fill="none" xmlns="http://www.w3.org/2000/svg">
<rect x="2.25" y="2.25" width="67.5" height="67.5" rx="33.75" fill="#F2F2F2"/>
<path d="M35.6834 49.5443C29.2708 49.5443 23.8485 45.3181 22.0444 39.4996C22.0388 39.4715 22.05 39.4435 22.0781 39.4384C22.1061 39.4328 22.1342 39.4441 22.1392 39.4721C24.0266 44.7599 29.3756 48.5722 35.6812 48.5722C41.9868 48.5722 47.3359 44.7599 49.2232 39.4721C49.2288 39.4441 49.2569 39.4328 49.2866 39.4384C49.3147 39.444 49.326 39.4721 49.3204 39.4996C47.5162 45.3181 42.0959 49.5443 35.6834 49.5443Z" fill="black"/>
<path d="M29.2761 27.7636C29.2705 27.7535 29.2368 27.7198 29.2256 27.712C29.1863 27.6845 29.1683 27.6861 29.1363 27.694C29.1026 27.7018 29.097 27.7119 29.0729 27.7198C29.0448 27.7277 29.0156 27.7277 28.9876 27.7178C28.9303 27.6999 28.8927 27.6267 28.8489 27.5772C28.8377 27.5913 28.8152 27.6188 28.8152 27.6188C28.6608 27.5515 28.5042 27.5217 28.3358 27.5733C28.3189 27.5772 28.2909 27.5576 28.2724 27.5514C28.2112 27.6742 28.0821 27.694 27.9675 27.7177C27.917 27.7278 27.8665 27.7514 27.8149 27.7791C27.7868 27.7988 27.7587 27.8603 27.7295 27.8821C27.7014 27.9079 27.67 27.8961 27.6442 27.9236C27.5588 28.0167 27.4993 28.1236 27.4977 28.2227C27.4957 28.2999 27.4696 28.3613 27.3887 28.3969C27.3551 28.4127 27.3175 28.4463 27.3018 28.4801C27.2147 28.6504 27.1255 28.8247 27.0542 29.005C27.0261 29.0782 27.0149 29.1793 26.9767 29.2466C26.9155 29.3595 26.943 29.4605 26.9655 29.5714C26.988 29.6862 27.0525 29.9477 27.0525 29.9477C26.6938 29.9555 26.1257 29.9752 25.6742 29.9971C25.6702 29.9397 25.5574 29.7574 25.5355 29.7238C25.5131 29.6924 25.4563 29.5198 25.5692 29.401C25.6085 29.3555 25.7336 29.1752 25.7336 29.0584C25.7376 28.7692 25.6186 28.4524 25.5911 28.2167C25.7337 28.0107 25.5854 27.8028 25.5967 27.5929C25.5967 27.5867 25.5686 27.5614 25.5574 27.5474C25.7039 27.3613 25.7573 27.0523 25.6562 26.9949C25.3233 27.4048 25.5175 27.9514 25.3137 28.4029C25.2969 28.4644 25.2688 28.5218 25.3306 28.5891C25.3878 28.6485 25.2857 28.8881 25.2475 28.8505C25.3037 28.7376 25.1465 28.6386 25.0712 28.5357C25.0488 28.5059 25.0712 28.4703 25.0712 28.4386C25.1998 28.3079 25.2616 28.1713 25.1386 28.0009C25.1049 27.9532 25.1161 27.8762 25.1049 27.8148C25.2514 27.7574 25.3328 27.6524 25.2991 27.5217C25.2655 27.387 25.3048 27.2682 25.3553 27.1494C25.4165 27.0028 25.4822 26.8563 25.5456 26.7058C25.5849 26.6087 25.613 26.5157 25.5437 26.4305C25.5324 26.4165 25.5268 26.3906 25.5324 26.3811C25.6099 26.1691 25.7143 25.9711 25.8395 25.777C25.9186 25.6285 26.0096 25.4919 26.1106 25.3591C24.7105 26.5197 23.5618 27.9238 22.74 29.5022C22.7287 29.5202 22.7119 29.5297 22.6951 29.5297C22.667 29.5297 22.6445 29.5061 22.6445 29.4781L22.6485 29.4584C23.7615 26.973 25.5518 24.8638 27.8272 23.3587C30.1601 21.8159 32.8793 21 35.6875 21C38.4957 21 41.2148 21.8159 43.5477 23.3587C45.8231 24.8638 47.6134 26.973 48.7264 29.4584L48.7304 29.4781C48.7304 29.5056 48.7079 29.5297 48.6799 29.5297C48.663 29.5297 48.6462 29.5196 48.6349 29.5039C48.4564 29.1553 48.2588 28.8206 48.0487 28.4939C47.9499 28.4166 47.8528 28.3453 47.7972 28.2225C47.7523 28.1195 47.5693 28.0859 47.4884 27.9948C47.4054 27.9017 47.3043 27.8146 47.2487 27.7056C47.1359 27.4798 46.9439 27.3531 46.7222 27.2363C46.5004 27.0877 46.3242 26.8738 46.0905 26.7214C46.068 26.7096 46.0512 26.741 46.0343 26.7629C46.068 26.9253 46.1927 27.0619 46.3431 27.1649C46.4857 27.2936 46.5727 27.4699 46.763 27.5609C46.9393 27.6679 47.0779 27.8303 47.2323 27.9689L47.2267 27.979L47.1986 28.0166C47.1537 27.9829 47.1054 27.9493 47.0599 27.9157L47.0487 27.9218C47.0712 27.9735 47.0768 28.0407 47.1139 28.0624C47.2267 28.1377 47.2463 28.2565 47.2306 28.3436C47.2286 28.3577 47.2267 28.3695 47.225 28.3813C47.2211 28.397 47.2194 28.4127 47.2194 28.429V28.4351C47.2174 28.4469 47.2174 28.4548 47.2174 28.4688C47.2174 28.5302 47.2286 28.5877 47.2455 28.6451C47.2511 28.6765 47.2567 28.7085 47.268 28.7422C47.1613 28.6709 47.0524 28.6055 46.9491 28.5302C46.9266 28.5123 46.9266 28.4649 46.9154 28.4292V28.4132C46.9603 28.3419 47.0776 28.3874 47.1748 28.3717C47.0776 28.0053 46.747 27.8568 46.4718 27.629C46.3432 27.5241 46.2259 27.4072 46.113 27.2884C46.0238 27.1913 45.9289 27.0824 45.7964 27.0508C45.7684 27.0861 45.7403 27.1141 45.7212 27.1557C45.6987 27.1995 45.7099 27.3141 45.6639 27.3043C45.5589 27.2824 45.4046 27.1993 45.3114 27.2689C45.2889 27.3205 45.3094 27.4194 45.3619 27.457C45.4927 27.5659 45.4124 27.6709 45.3114 27.7541C45.2384 27.8234 45.2423 27.9422 45.2423 28.0353C45.2423 28.0729 45.2367 28.1303 45.2536 28.1462C45.404 28.2433 45.3226 28.3918 45.3484 28.5166C45.3464 28.6195 45.3372 28.78 45.2137 28.7938C44.887 28.8214 44.7601 29.1147 44.7029 29.0315C44.6119 28.9503 44.5839 28.9245 44.5244 28.8671C44.4508 28.7938 44.3879 28.7582 44.283 28.8356C44.2324 28.8733 44.1426 28.8654 44.0651 28.8772C44.0427 28.8059 44.0314 28.7445 44.009 28.693C43.9809 28.6237 43.9753 28.5485 43.8664 28.5306C43.8327 28.5267 43.7811 28.5166 43.7889 28.4177C43.817 28.0929 43.68 27.8454 43.4897 27.5939C43.4729 27.5681 43.4005 27.5422 43.3949 27.5107C43.378 27.4315 43.456 27.4809 43.5099 27.4434C43.5605 27.408 43.506 27.3424 43.6902 27.3562C43.9753 27.3781 44.2645 27.3208 44.5873 27.2948C44.411 27.0374 44.3835 26.8413 44.3217 26.772C44.2712 26.7106 44.0843 26.5918 43.9293 26.5106C43.89 26.4909 43.8345 26.4831 43.7867 26.4848C43.67 26.4887 43.5712 26.4629 43.5038 26.36C43.6049 26.2055 43.7772 26.3403 43.9159 26.2689C43.8654 26.2155 43.7671 26.1441 43.7654 26.1025C43.8305 26.0727 43.9456 26.134 44.013 26.148C44.0523 26.0826 44.0882 26.0351 44.1258 25.9737C44.109 25.9423 44.0428 25.8708 44.0568 25.845C44.2095 25.6886 44.2252 25.7519 44.1517 25.5419C44.1797 25.52 44.2168 25.6034 44.2566 25.6489C44.2679 25.5956 44.3515 25.5419 44.1775 25.4429C44.1663 25.4328 44.2168 25.4132 44.2465 25.3913C44.269 25.3755 44.2445 25.3498 44.269 25.3397C44.3251 25.3178 44.3958 25.3279 44.4138 25.3082C44.265 25.1894 44.1505 25.0646 44.0057 24.9557C43.9007 24.8844 43.8491 24.8032 43.9204 24.722C44.0018 24.7675 44.0848 24.8092 44.164 24.8547C44.2145 24.9103 44.1752 24.9716 44.269 25.0052C44.2914 24.9895 44.4093 24.9817 44.4155 24.9575C44.4267 24.93 44.3363 24.8743 44.3262 24.8546C44.2813 24.7773 44.0787 24.6229 44.0096 24.6208C43.9226 24.6169 43.7722 24.5139 43.7065 24.4525C43.7289 24.4721 43.6672 24.498 43.6672 24.5178C43.6166 24.7198 43.3758 24.6426 43.2989 24.5077C43.2821 24.4819 43.2254 24.5015 43.2057 24.478C43.0693 24.3235 43.075 24.3591 42.9088 24.266C42.8976 24.2559 42.9048 24.2284 42.8975 24.1829C42.8863 24.064 42.7274 23.9967 42.7274 23.967C42.7274 23.9356 42.8599 23.953 42.8762 23.7492C42.0702 23.3175 41.2226 22.961 40.3472 22.6837C40.2321 22.6994 40.1193 22.7253 40.0244 22.7689C39.8622 22.854 39.6657 22.8461 39.4816 22.8104C39.3923 22.7947 39.3547 22.8323 39.3154 22.9055C39.2817 22.9669 39.1908 22.9708 39.1352 23.0223L39.1745 23.1055C39.1296 23.1887 39.0735 23.2382 39.014 23.3471C38.8439 23.2818 38.699 23.1986 38.5228 23.1689C38.3285 23.1374 38.1764 23.054 38.0495 22.9094C37.9131 22.7589 37.715 22.648 37.5943 22.4817C37.5606 22.4362 37.5549 22.3628 37.5662 22.3114C37.5774 22.2715 37.6319 22.248 37.6852 22.2341C37.7189 22.2301 37.7604 22.2459 37.7941 22.2442C37.8278 22.2402 37.9148 22.1471 37.9507 22.1313C37.5168 22.0699 37.0793 22.0244 36.6397 21.9967C36.7525 22.0242 36.8339 22.0838 36.8856 22.1887C36.8261 22.1868 36.7727 22.1826 36.7211 22.1786L36.7171 22.2022C37.0023 22.327 37.434 22.4795 37.531 22.5745C37.5367 22.6003 37.4362 22.6262 37.2082 22.6914C37.1521 22.7031 37.0696 22.5903 36.7311 22.4695C36.7198 22.4656 36.6738 22.4954 36.6749 22.4971C36.6862 22.533 36.703 22.5743 36.7322 22.5961C36.8411 22.6674 36.9579 22.7348 37.0864 22.81C37.0151 22.8633 36.8748 22.8218 36.9416 22.9724C36.7793 22.8833 36.6368 22.806 36.4942 22.7288L36.483 22.7445C36.5621 22.8099 36.6396 22.8713 36.7187 22.9347C36.7131 22.9465 36.7075 22.9565 36.6963 22.97C36.4487 22.9206 36.2152 22.8215 35.9754 22.7403C35.9473 22.7285 35.8822 22.6453 35.8603 22.6215C35.8603 22.6215 35.6346 22.4967 35.5274 22.465C35.4207 22.4336 35.2877 22.4134 35.1529 22.4196C35.0182 22.4257 34.9885 22.3741 34.9885 22.3741C34.9885 22.3741 35.0334 22.2909 35.0996 22.285C35.1647 22.285 35.3371 22.3305 35.4404 22.3366C35.5453 22.3484 35.6997 22.3625 35.6997 22.3625C35.6885 22.317 35.6829 22.299 35.6773 22.2694C35.7901 22.2553 35.9029 22.2396 36.0259 22.2239C35.9978 22.1625 36.0203 22.0595 35.8934 22.1466C35.871 22.1624 35.812 22.1309 35.7446 22.1191C35.7839 22.0933 35.8019 22.0838 35.8198 22.0697C35.7805 22.0635 35.7328 22.0597 35.6991 22.0439C35.6598 22.0243 35.6296 21.9984 35.6004 21.9667C35.149 21.9706 34.6993 21.9925 34.2517 22.034C34.3089 22.1825 34.4953 22.1885 34.5902 22.3429C34.4397 22.321 34.2893 22.2795 34.1428 22.2637C34.0597 22.2657 33.9524 22.3153 33.8733 22.3075C33.8171 22.3013 33.7801 22.1748 33.7745 22.1788C33.8396 22.1154 33.9609 22.0857 34.0872 22.05C33.7958 22.0798 33.5069 22.1194 33.2198 22.1629C32.3643 22.3372 32.1127 22.5907 31.992 22.7135C31.992 22.7135 32.1447 22.7967 32.1941 22.8283C32.1548 22.8937 32.1228 22.9511 32.0953 22.9967C32.2277 23.0382 32.5786 23.1532 32.6795 23.2185C32.8535 23.4918 33.1903 23.472 33.4676 23.5651C33.4065 23.6522 33.3924 23.7453 33.3391 23.8265C33.3278 23.8445 33.3278 23.8799 33.3391 23.9018C33.3728 23.9731 33.3784 24.0246 33.4222 24.0959C33.4334 24.1116 33.4615 24.1374 33.4794 24.1358C33.8735 24.1256 33.8477 24.007 33.9072 23.6921C34.0992 23.6663 34.5746 23.682 34.6241 23.4525C34.6297 23.3238 34.4933 23.2049 34.3945 23.1732C34.4001 23.1614 34.4114 23.1457 34.417 23.1317C34.49 23.1277 34.6764 23.0544 34.6999 23.0287C34.6663 22.9833 34.7111 22.9771 34.6494 22.904C34.7168 22.8899 34.7504 22.8899 34.7661 22.8446C34.7701 22.8328 34.7662 22.8008 34.7605 22.7812C34.7566 22.7694 34.7585 22.7553 34.7645 22.7458C34.7757 22.734 34.787 22.7262 34.8094 22.7278C35.0076 22.7497 35.2136 22.7812 35.4094 22.8288C35.4987 22.8547 35.6076 22.8981 35.657 22.9675C35.758 23.112 35.8984 23.1061 36.0252 23.1576C35.9046 23.2864 35.9804 23.417 36.1044 23.4983C36.3756 23.6944 36.663 23.5539 36.9065 23.4191C36.9918 23.5458 37.2315 23.7657 37.3264 23.8805C37.3264 23.8805 37.2984 23.9578 37.4118 24.1479C37.5308 24.344 37.8575 24.4311 38.0831 24.5281C38.0135 24.6013 38.0494 24.6291 38.3744 24.7816C38.3688 24.8349 38.3725 24.8905 38.3352 24.9222C38.279 24.9739 38.1942 24.9955 38.1392 25.0094C38.0539 25.0352 37.9731 25.0155 37.9057 25.0054C37.8069 24.9897 37.7098 24.9835 37.6127 25.0211C37.4184 25.0964 37.2366 25.0744 37.0423 25.0191C36.751 24.9359 36.4581 24.8647 36.163 24.7973C36.0423 24.7676 35.9177 24.762 35.8065 24.8529C35.7728 24.8804 35.6937 24.8686 35.6342 24.8787C35.4815 24.9023 35.0952 25.0412 34.9628 25.1085C35.3114 25.0233 35.6679 24.9381 36.1035 24.9539C36.1771 24.9579 36.2461 24.9736 36.3449 25.0312C36.373 25.0469 36.4044 25.0828 36.3954 25.1124C36.3914 25.1343 36.3393 25.1601 36.3123 25.1601C36.2152 25.1679 36.1181 25.1641 36.021 25.1641C36.019 25.1758 36.0154 25.1859 36.0154 25.1955C36.1047 25.2056 36.1917 25.2174 36.3028 25.2292C36.2394 25.2628 36.1861 25.2886 36.1305 25.3203C36.1754 25.5263 36.3421 25.6094 36.552 25.649C36.6172 25.6608 36.7165 25.7007 36.7839 25.7243C36.899 25.6649 37.0079 25.6074 37.1168 25.546C37.1449 25.5303 37.1819 25.5421 37.1505 25.5814C37.0848 25.6467 37.1392 25.6428 37.1224 25.6745C37.1505 25.7003 37.1858 25.73 37.2173 25.7576C37.2285 25.7677 37.2285 25.7773 37.2117 25.7874C37.0713 25.7655 37.0753 25.825 36.9046 25.7992C36.8934 25.8171 36.9495 25.8508 36.8597 25.8447C36.5431 25.8427 36.224 25.793 35.917 25.9021C35.8519 25.9257 35.7806 25.942 35.7368 25.8645C35.72 25.8387 35.6919 25.803 35.6975 25.7833C35.7087 25.7519 35.7481 25.7199 35.7789 25.714C35.8839 25.6904 35.9928 25.6786 36.104 25.6328C36.0984 25.5674 35.8744 25.603 35.674 25.6013C35.5926 25.6647 35.3119 25.6547 35.1334 25.639C34.9156 25.6115 34.6444 25.6945 34.5353 25.8588C34.5184 25.8863 34.5409 25.9321 34.569 25.9519C34.597 25.9777 34.6975 25.9856 34.6919 26.0212C34.2265 26.0252 34.1018 25.9202 33.8483 25.944C33.8483 25.9518 33.8819 25.9619 33.8707 25.9878C33.9044 25.9939 33.9397 25.9996 33.9717 26.0114C33.9998 26.0215 34.0689 26.0254 34.1166 26.031C34.1278 26.0371 34.1278 26.045 34.1166 26.0506C34.0453 26.0506 33.9364 26.0568 33.9089 26.0506C33.8454 26.0287 33.7843 26.0506 33.7388 26.0506C33.6883 26.1179 33.6041 26.118 33.5625 26.1596C33.5176 26.1949 33.4755 26.3358 33.398 26.32C33.3961 26.2507 33.3251 26.2329 33.2992 26.2011C33.288 26.209 33.2712 26.2152 33.2599 26.2208C33.3391 26.4684 33.0814 26.4545 33.0124 26.5971C32.9843 26.6167 32.9899 26.5774 32.9787 26.5713C33.0068 26.5359 33.0068 26.5079 33.0236 26.4901C32.9843 26.4424 33.0236 26.3356 33.0236 26.2663C33.0124 26.2467 32.9731 26.2523 32.9624 26.2922C32.9287 26.407 32.8833 26.5001 32.9063 26.6189C32.9697 26.7476 32.9083 26.8764 32.7637 26.912C32.7244 26.9238 32.6486 26.912 32.6688 26.9932C32.6688 26.9952 32.6127 27.0207 32.5795 27.0207C32.3915 27.0187 32.3006 27.0504 32.2051 27.1336C31.9396 27.1078 31.7616 27.3098 31.5258 27.3653C31.399 27.395 31.2744 27.494 31.1952 27.593C31.033 27.8406 31.1559 28.1871 31.1043 28.4644C31.0818 28.5892 30.9477 28.7278 30.9359 28.8249C30.9359 28.8249 30.9134 28.8269 30.8966 28.8288C30.8573 28.8308 30.7517 28.8664 30.7164 28.8187C30.7613 28.7316 30.6473 28.5771 30.6136 28.4444C30.5799 28.3197 30.5799 28.1533 30.6361 28.0344C30.6697 27.9651 30.6698 27.9493 30.6024 27.8899C30.5856 27.8758 30.5743 27.8562 30.5687 27.8405C30.5238 27.7157 30.4778 27.68 30.3408 27.7375C30.2757 27.769 30.2201 27.7572 30.1746 27.6801C30.1409 27.6245 30.0477 27.589 29.9765 27.5573C29.8951 27.5259 29.7924 27.6067 29.711 27.4999C29.6829 27.4645 29.4493 27.5313 29.3663 27.5397C29.355 27.5459 29.3943 27.617 29.3438 27.6447C29.3326 27.6548 29.3101 27.6604 29.3157 27.6784C29.3157 27.6846 29.3438 27.7317 29.3326 27.7437C29.3101 27.7634 29.2989 27.7634 29.2989 27.7634L29.2761 27.7636ZM44.9034 25.2307C44.9809 25.0801 44.8063 24.999 44.6974 24.9296C44.6637 24.91 44.6104 24.9218 44.547 24.9156C44.5807 24.9633 44.5919 24.9889 44.616 25.0186C44.5879 25.0303 44.5599 25.0405 44.5346 25.05C44.5459 25.0854 44.5515 25.1173 44.5683 25.1689C44.4931 25.1492 44.4414 25.1334 44.3881 25.1211L44.3769 25.143C44.4521 25.179 44.5273 25.2162 44.6127 25.2559C44.6463 25.1648 44.6957 25.1391 44.7788 25.2301C44.7956 25.2519 44.8956 25.2464 44.9034 25.2307Z" fill="black"/>
<path fill-rule="evenodd" clip-rule="evenodd" d="M35.6395 22.061C35.6732 22.2214 35.4077 22.1342 35.3027 22.1244C35.4156 21.9996 35.5346 22.0669 35.6395 22.061Z" fill="black"/>
<path d="M38.2716 25.1417C38.0263 25.1753 38.0359 25.2684 38.0084 25.3318C38.0937 25.3436 38.2301 25.3161 38.3076 25.3256L38.3188 25.3531C38.302 25.361 38.2907 25.3688 38.2492 25.3885C38.4395 25.4499 38.6096 25.5014 38.7859 25.5529C38.769 25.6045 38.6988 25.6717 38.6831 25.7133C38.7802 25.7689 38.8594 25.7369 38.865 25.7532C38.8762 25.7689 38.7538 25.8225 38.7084 25.8542L38.7196 25.8738C38.7701 25.8581 38.8818 25.8124 38.8981 25.8222C38.943 25.8559 38.842 25.8677 38.819 25.9331C38.8751 25.9253 38.9279 25.9056 38.9554 25.8994C38.9666 25.9151 38.9442 25.9292 38.9722 25.9511C38.8813 26.1194 38.8908 26.1214 38.7842 26.0382C38.773 26.0281 38.8235 25.9927 38.7802 25.9649C38.7634 25.9548 38.7522 25.9924 38.7129 26.0087C38.6848 25.9969 38.6568 25.9907 38.6219 25.9829C38.6332 25.9492 38.7089 25.9175 38.6612 25.868C38.5108 25.8916 38.3542 25.9056 38.2178 25.8994C38.1841 25.8916 38.1953 25.868 38.2158 25.8618C38.2972 25.8638 38.4156 25.8422 38.41 25.8304C38.2259 25.7748 38.0715 25.7393 37.9031 25.6878C37.7448 25.6362 37.4753 25.676 37.4142 25.569C37.358 25.4699 37.6101 25.2838 37.8773 25.1353C37.9345 25.0999 38.0928 25.0699 38.2478 25.064C38.2646 25.0718 38.2323 25.1258 38.2716 25.1417Z" fill="black"/>
<path fill-rule="evenodd" clip-rule="evenodd" d="M46.0218 27.3225C46.0779 27.473 46.1683 27.5622 46.1666 27.6493C46.042 27.5879 45.9763 27.5186 45.9786 27.4354C45.9805 27.4 46.0218 27.4017 46.0218 27.3225Z" fill="black"/>
<path d="M36.2168 25.4142C36.2393 25.4064 36.2729 25.3648 36.292 25.3489C36.3695 25.535 36.571 25.4637 36.708 25.5548C36.639 25.5706 36.5772 25.5863 36.5137 25.6026C36.3453 25.5293 36.3296 25.5172 36.2168 25.4142Z" fill="black"/>
<path d="M36.3789 24.9189C36.5434 24.8892 36.7455 24.9804 36.8959 25.1269L36.8791 25.1622C36.6512 25.1008 36.4856 24.9922 36.3789 24.9189Z" fill="black"/>
<path d="M42.0068 25.7726C42.0293 25.7053 42.0181 25.634 41.9956 25.6023C41.9204 25.5568 41.9282 25.5545 41.853 25.5092C41.857 25.4974 41.8418 25.4458 41.8418 25.4319C41.9069 25.4005 41.9232 25.3786 41.9664 25.3429C42.0338 25.2577 41.9383 25.2498 41.9552 25.226C42.0366 25.1231 42.1472 25.0617 42.2521 25.0359C42.3027 25.0814 42.3532 25.127 42.4183 25.1844C42.4164 25.1884 42.4015 25.2299 42.3902 25.2498C42.4576 25.3132 42.5626 25.3864 42.5979 25.5666C42.4295 25.7151 42.283 25.8538 42.1842 25.9073C42.1337 25.9387 42.0613 25.937 42.0259 25.9112C42.0035 25.8916 41.9844 25.8556 42.0068 25.7726Z" fill="black"/>
<path d="M42.4559 25.0818C42.4447 25.0504 42.4391 25.0224 42.4278 24.9927C42.3941 25.0028 42.3829 24.9826 42.3189 25.0045C42.3526 24.9451 42.3582 24.9431 42.3784 24.9114L42.3447 24.9294C42.3167 24.8895 42.2999 24.8422 42.2673 24.8125C42.2224 24.771 42.1623 24.7452 42.127 24.7254C42.1662 24.6541 42.2061 24.5908 42.2476 24.5254C42.3072 24.5254 42.3885 24.5254 42.4913 24.5234C42.402 24.662 42.4464 24.6957 42.5845 24.6739C42.7035 24.656 42.7764 24.6998 42.7686 24.8284C42.7647 24.8683 42.7742 24.9096 42.7742 24.9215C43.0436 25.1176 43.3704 25.2146 43.5426 25.5037C43.6633 25.3908 43.8553 25.4841 43.8003 25.7711C43.834 25.7829 43.8676 25.7987 43.9013 25.8149C43.8994 25.829 43.8994 25.8424 43.8994 25.8447C43.8488 25.9358 43.4362 25.9199 43.2656 25.9932C43.1747 26.0308 43.232 25.8823 42.9625 26.0128C43.0815 25.7514 43.1365 25.8287 43.2 25.7732C43.1107 25.7553 43.008 25.7317 42.8733 25.6999C42.9704 25.6466 43.0534 25.5197 42.9125 25.5098C42.8901 25.5078 42.8901 25.4582 42.8733 25.4227H43.0237C43.0349 25.4126 43.0405 25.4008 43.0518 25.3952C42.9844 25.2823 42.9406 25.2466 42.8379 25.1575C42.7408 25.1536 42.5606 25.2724 42.5864 25.0189C42.5302 25.0448 42.4952 25.06 42.4559 25.0818L42.4502 25.0823L42.4559 25.0818Z" fill="black"/>
<path d="M46.3326 28.2137C46.299 28.0216 46.1839 27.9601 46.1227 27.8294C46.1115 27.8059 46.162 27.7582 46.1901 27.7126C46.3186 27.8493 46.418 28.0275 46.4315 28.1305C46.4371 28.192 46.3978 28.1406 46.3664 28.2276C46.3551 28.2236 46.3326 28.2237 46.3326 28.2137Z" fill="black"/>
<path d="M35.0334 44.0073C35.0334 43.9568 34.9284 43.9849 34.8571 43.9961C34.8347 43.9981 34.9167 44.041 34.6472 44.2123C34.6865 44.2123 34.8751 44.2162 34.8117 44.2459C34.5955 44.42 34.3816 44.535 34.1482 44.6776C34.1258 44.6888 34.091 44.6945 34.073 44.6889C33.9579 44.6137 33.8114 44.6889 33.6969 44.5345C33.652 44.4694 33.5779 44.4784 33.5487 44.4593C33.5375 44.4553 33.4875 44.3402 33.4696 44.3503C33.4639 44.356 33.41 44.384 33.4134 44.4009C33.419 44.4233 33.4527 44.4643 33.4527 44.4643C33.5089 44.5255 33.5975 44.5929 33.643 44.6524C33.6486 44.6636 33.639 44.7135 33.6093 44.7613C33.5981 44.7837 33.5981 44.8404 33.6262 44.8921C33.6374 44.9201 33.6935 44.9089 33.6857 44.9594C33.6688 45.0622 33.4701 45.207 33.3528 45.2008C33.204 45.1989 33.0558 45.184 32.9093 45.1672C32.7847 45.1503 32.6774 45.2424 32.7111 45.367C32.7336 45.4383 32.7071 45.4602 32.655 45.4563C32.5203 45.445 32.3973 45.417 32.2766 45.3451C32.2598 45.5511 32.2786 45.573 32.449 45.6045C32.477 45.6101 32.4995 45.6679 32.536 45.7111C32.4153 45.7504 32.2531 45.7224 32.2867 45.8835C32.298 45.9228 32.2699 45.9705 32.2587 46.012C32.1874 46.0401 32.051 46.0401 32.0251 46.0873C31.9915 46.2574 32.17 46.2338 32.2923 46.3152C32.298 46.3657 32.298 46.414 32.2867 46.4342C32.2474 46.4791 32.1481 46.547 32.1003 46.5829C32.1043 46.6402 32.1116 46.684 32.0891 46.7076C32.0554 46.7132 32.0038 46.7357 31.9684 46.7413C31.9909 46.8541 32.0656 46.9277 32.0931 46.9731C32.0891 46.9956 32.0038 46.9506 31.9482 46.945L32.1267 47.0618C32.2295 47.1213 32.1862 47.141 32.2834 47.2302C32.3743 47.3116 32.4198 47.3273 32.4159 47.3374C32.4103 47.3543 32.4327 47.4402 32.1543 47.3487C31.8236 47.2415 31.7383 47.1999 31.3502 46.8238C31.3502 46.8238 31.1425 46.6374 31.0016 46.2455C30.9904 46.2175 30.9567 46.1821 30.9735 46.1585C30.9847 46.1417 31.0072 46.1361 31.051 46.1417C31.047 46.1024 31.055 46.0406 31.0341 46.0249C31.0005 45.9968 30.8854 46.0586 30.8797 45.98C30.9247 45.8632 30.9449 45.889 30.9651 45.7762C30.9707 45.7425 30.9314 45.7027 30.9314 45.5387C30.9314 45.5107 30.9763 45.4994 30.9965 45.5163C31.0302 45.5876 31.0577 45.6864 31.1077 45.7318C31.0515 45.3911 31.0964 45.4905 31.0628 45.2407C31.0235 45.1901 31.0066 45.2182 30.9937 45.2182V45.4618C30.8949 45.4506 30.859 45.4169 30.8809 45.2659C30.8849 45.2435 30.9202 45.2603 30.8828 45.1884C30.8491 45.1273 30.8604 45.0318 30.8604 44.9807C30.9261 44.8044 30.866 44.6422 30.793 44.4918C30.6959 44.3054 30.795 44.3632 30.8155 44.2857C30.9143 43.9607 31.0692 43.6421 30.9777 43.2797C30.9497 43.177 30.8946 43.058 30.9946 42.953C31.0058 42.9418 31.0002 42.908 30.9946 42.8878C30.9351 42.7138 31.017 42.5611 31.0541 42.3989C31.0765 42.29 31.0878 42.1771 31.099 42.066C31.1214 41.8835 31.1439 41.6977 31.127 41.5153C31.131 41.3867 31.1231 41.325 31.1383 41.2278C31.1495 41.1425 31.2158 41.0617 31.2197 40.9741C31.2237 40.7759 31.2084 40.5777 31.1972 40.38C31.1952 40.3463 31.186 40.3025 31.1635 40.2773C30.9199 39.9842 30.6763 39.695 30.3456 39.5009C30.1082 39.3606 29.9992 39.1186 29.8701 38.8296C29.8477 38.7847 29.8252 38.7206 29.7949 38.6533C31.7971 38.5899 33.7953 38.5543 35.7895 38.5562C37.2887 38.5562 39.0355 38.5663 40.5366 38.6017C40.5253 38.8077 40.5141 39.0453 40.5141 39.0849C40.4916 39.3701 40.4428 39.3858 40.3182 39.6474C40.211 39.8551 40.033 39.9483 39.8764 40.0673C39.6328 40.2537 39.3476 40.38 39.1258 40.5961C39.0466 40.6596 38.9753 40.7583 38.8861 40.7842C38.5116 40.8813 38.5672 41.2355 38.4308 41.505C38.3039 41.7925 38.1394 41.9188 37.9677 42.2121C37.8924 42.3148 37.7499 42.3783 37.6426 42.4557C37.5674 42.6399 37.3973 42.7072 37.2486 42.8044C37.1121 42.8437 36.9617 42.7539 36.8208 42.7387C36.6883 42.7162 36.5238 42.81 36.4761 42.9071C36.2089 42.8622 36.0444 42.9801 35.8186 43.0834C35.6463 43.1563 35.6047 43.3113 35.6087 43.4657C35.6127 43.5847 35.5637 43.6521 35.4801 43.6975C35.3038 43.7947 35.177 43.935 35.0366 44.0798C34.9771 44.141 34.9294 44.1472 34.9216 44.1472C34.9195 44.1491 34.8734 44.1533 35.0334 44.0073Z" fill="black"/>
<path d="M56.3801 38.3103C56.2139 37.8726 56.0455 37.4389 55.8771 37.0052C54.9542 36.9299 54.0294 36.8606 53.1065 36.7952L52.6013 38.0251C52.041 37.9875 51.4804 37.9498 50.9199 37.9181C51.8765 35.7436 52.831 33.5711 53.7876 31.4084C54.0211 31.4264 54.2569 31.4421 54.4906 31.4601C54.7263 31.4781 54.9599 31.4938 55.1956 31.5134C56.1502 33.8226 57.1047 36.1377 58.0593 38.4548C57.5007 38.4032 56.9406 38.3578 56.3801 38.3103ZM53.663 35.4387C54.2154 35.4802 54.7681 35.5218 55.3206 35.5654C55.0433 34.8505 54.7682 34.1375 54.4908 33.4226C54.2157 34.096 53.9384 34.7673 53.663 35.4387Z" fill="black"/>
<path d="M28.0966 37.593C27.1777 35.3868 26.2588 33.1905 25.3398 30.9962C25.926 30.9704 26.5142 30.9468 27.1004 30.9249C27.6309 32.3073 28.1619 33.6896 28.6927 35.072C29.2237 33.6579 29.7542 32.2439 30.2849 30.8318C30.8731 30.8178 31.4593 30.806 32.0475 30.7959C31.1266 33.0437 30.2077 35.2974 29.2888 37.5571C29.0906 37.5632 28.8908 37.5672 28.6927 37.5728C28.4945 37.579 28.2969 37.5874 28.0966 37.593Z" fill="black"/>
<path d="M10.5863 36.0958C10.5863 37.0504 10.9428 37.498 11.7765 37.4128C12.6123 37.3296 12.9687 36.8147 12.9687 35.8602V31.838C13.4976 31.7863 14.0282 31.7389 14.557 31.6934V35.7414C14.557 37.603 13.6282 38.6645 11.7765 38.8467C9.92682 39.0308 9 38.1535 9 36.2919V32.2439C9.52881 32.1865 10.0576 32.1291 10.5863 32.0756" fill="black"/>
<path d="M48.3389 33.5587C49.3727 33.9845 50.7867 34.5034 50.7867 35.8837C50.7867 37.2958 49.7787 38.0404 48.0161 37.9533C46.9764 37.9016 45.8891 37.2819 45.5802 37.0957C45.569 37.0895 45.5577 37.084 45.5465 37.0761V35.4917C45.5802 35.5114 45.6099 35.5293 45.6414 35.5531C46.59 36.1532 47.3742 36.4919 48.0139 36.5711C48.7764 36.6681 49.1309 36.4404 49.1309 35.9829C49.1309 35.7928 48.9725 35.6047 48.6295 35.4363C48.4336 35.3373 48.1978 35.2402 47.9483 35.1372C46.8392 34.6877 45.4609 34.2481 45.4609 32.7132C45.4609 31.3566 46.657 30.7981 47.8433 30.8556C48.7503 30.8971 49.8317 31.3546 50.3386 31.6497C50.3499 31.6559 50.3611 31.6638 50.3723 31.6694V33.2537C50.3386 33.234 50.3089 33.2138 50.2774 33.1923C49.9648 32.9923 48.8634 32.3308 47.8435 32.2833C47.3304 32.2597 47.1088 32.4457 47.1088 32.6853C47.1088 32.8556 47.2733 33.0576 47.6118 33.2339C47.8117 33.3408 48.0693 33.4458 48.3389 33.5587Z" fill="black"/>
<path d="M43.2988 34.98C43.8253 35.8593 44.3504 36.7386 44.8772 37.6199C44.2831 37.598 43.687 37.5784 43.0929 37.5625C42.6275 36.7525 42.162 35.9445 41.6946 35.1405C41.332 35.1326 40.9699 35.1247 40.6075 35.1185V37.501C40.0865 37.4909 39.5658 37.4853 39.0449 37.4791V30.7793C40.2411 30.7911 41.4372 30.8169 42.6334 30.8486C43.8791 30.8823 44.588 31.7339 44.588 33.0152C44.588 34.2669 43.9028 34.774 43.2988 34.98ZM40.5995 33.7205C41.0868 33.7323 41.5759 33.7424 42.063 33.7519C42.7938 33.7716 42.9403 33.3638 42.9403 33.0191C42.9403 32.6746 42.7916 32.2567 42.063 32.2389C41.5758 32.2248 41.0867 32.2153 40.5995 32.2052" fill="black"/>
<path d="M23.0974 37.8066C23.0934 35.5726 23.0918 33.3407 23.0918 31.1068C23.6184 31.077 24.1473 31.0512 24.6741 31.0295V37.7273C24.1492 37.7532 23.6222 37.779 23.0974 37.8066Z" fill="black"/>
<path d="M34.2593 34.7765V36.0599C35.4575 36.0498 36.6536 36.0498 37.8518 36.0599V37.4739C36.1387 37.4621 34.4257 37.4677 32.7146 37.4896C32.7107 35.2557 32.709 33.0237 32.709 30.7898C34.4102 30.7679 36.1133 30.7623 37.8144 30.7741V32.1802C36.6301 32.1723 35.4459 32.1723 34.2616 32.1802V33.3645C35.0657 33.3583 35.8697 33.3566 36.6737 33.3583V34.7743C35.8697 34.7723 35.0634 34.7745 34.2593 34.7765Z" fill="black"/>
<path d="M20.2012 31.274C20.7261 31.2425 21.2508 31.2106 21.7756 31.1809V37.8807C21.3462 37.9043 20.9181 37.9301 20.4884 37.9579L20.4715 37.9321C19.4616 36.6527 18.4516 35.3794 17.4435 34.1099V38.1698C16.9187 38.2096 16.3939 38.251 15.8691 38.2926V31.5928C16.3783 31.5529 16.8871 31.5116 17.396 31.4739L17.4128 31.4958C18.3417 32.6603 19.2705 33.8327 20.2013 35.0071" fill="black"/>
<path d="M58.7246 31.8162C59.2495 31.8639 59.7723 31.9152 60.2971 31.9667V37.2623C61.1982 37.3515 62.0992 37.4445 62.9983 37.5456V38.9497C61.5783 38.793 60.1565 38.6467 58.7325 38.5159C58.7306 36.284 58.7246 34.0501 58.7246 31.8162Z" fill="black"/>
<rect x="2.25" y="2.25" width="67.5" height="67.5" rx="33.75" stroke="white" stroke-width="4.5"/>
</svg>
