<svg width="40" height="40" viewBox="0 0 40 40" fill="none" xmlns="http://www.w3.org/2000/svg">
<rect x="1.5" y="1.5" width="37" height="37" rx="18.5" fill="#094BD7"/>
<g clip-path="url(#clip0_3224_9848)">
<mask id="mask0_3224_9848" style="mask-type:luminance" maskUnits="userSpaceOnUse" x="7" y="8" width="24" height="24">
<path d="M30.9449 8.71509H7.94531V31.151H30.9449V8.71509Z" fill="white"/>
</mask>
<g mask="url(#mask0_3224_9848)">
<path d="M29.7057 14.3184H26.4383C25.7489 14.3184 25.1926 14.8623 25.1926 15.5365V18.7036C25.1926 19.3778 24.6365 19.9217 23.9471 19.9217H20.7319C20.0424 19.9217 19.4862 19.3778 19.4862 18.7036V15.5365C19.4862 14.8623 18.9301 14.3184 18.2407 14.3184H15.0022C14.3128 14.3184 13.7566 13.7745 13.7566 13.1003V9.93319C13.7566 9.25899 13.2005 8.71509 12.5111 8.71509H9.24362C8.55421 8.71509 7.99805 9.25899 7.99805 9.93319V14.3184V14.3411V19.9217V19.9444V24.3296C7.99805 25.0037 8.55421 25.5477 9.24362 25.5477H12.4821C13.1715 25.5477 13.7277 26.0916 13.7277 26.7658V29.9329C13.7277 30.6071 14.2838 31.151 14.9732 31.151H18.2407C18.9301 31.151 19.4862 30.6071 19.4862 29.9329V26.7658C19.4862 26.0916 20.0424 25.5477 20.7319 25.5477H23.9703C24.6597 25.5477 25.2159 25.0037 25.2159 24.3296V21.1625C25.2159 20.4883 25.772 19.9444 26.4614 19.9444H29.6999C30.3893 19.9444 30.9455 19.4004 30.9455 18.7263V15.5308C30.9513 14.868 30.3951 14.3184 29.7057 14.3184ZM19.4631 24.3125C19.4631 24.9868 18.9069 25.5307 18.2175 25.5307H15.0022C14.3128 25.5307 13.7566 24.9868 13.7566 24.3125V21.1681C13.7566 20.494 14.3128 19.95 15.0022 19.95H18.2175C18.9069 19.95 19.4631 20.494 19.4631 21.1681V24.3125Z" fill="white"/>
</g>
</g>
<rect x="1.5" y="1.5" width="37" height="37" rx="18.5" stroke="white" stroke-width="3"/>
<defs>
<clipPath id="clip0_3224_9848">
<rect width="24.2308" height="23.3333" fill="white" transform="translate(7.5 8.33325)"/>
</clipPath>
</defs>
</svg>
