<svg width="48" height="48" viewBox="0 0 48 48" fill="none" xmlns="http://www.w3.org/2000/svg">
<g clip-path="url(#clip0_3224_9828)">
<rect width="48" height="48" rx="24" fill="#FABF2C"/>
<path d="M26.0341 29.4635L21.7117 31.3212V31.1354C20.8783 31.3463 19.9551 31.4679 19.0806 31.507C15.0157 31.4679 11.7893 29.3648 11.7517 26.8622V25.9332C13.0868 27.8524 15.8046 29.1383 19.0806 29.0919C20.1889 29.1383 21.3227 28.9649 22.2754 28.7203L22.6512 27.7912C21.5213 28.1245 20.288 28.3564 19.0806 28.3486C15.0157 28.3564 11.7893 26.2533 11.7517 23.7043V22.961C13.0868 24.7351 15.7988 26.0214 19.0806 25.9335C20.557 26.0214 22.0009 25.7145 23.2148 25.1903L23.403 24.2613C22.2169 24.8799 20.6797 25.2391 19.0806 25.1903C15.0157 25.2391 11.7893 23.136 11.7517 20.5459V19.8027C13.0868 21.6182 15.8046 22.9041 19.0806 22.961C20.9426 22.9041 22.7077 22.4175 24.1547 21.6604L24.3428 20.5455C23.0294 21.5079 21.1121 22.128 19.0806 22.2178C15.0157 22.128 11.7897 20.0245 11.7517 17.3876C11.7893 14.8796 15.0157 12.7765 19.0806 12.7432C21.5039 12.7765 23.7544 13.6165 25.0946 14.9725L25.225 15.1874L26.1726 15.1912L26.0341 14.9725C24.7013 13.1818 22.0357 12 19.0806 12C14.583 12 11 14.4507 11 17.3876V27.048C11.1579 29.9148 14.6592 32.2498 19.0806 32.2498C22.0009 32.2498 24.6254 31.1145 26.0341 29.4635Z" fill="black"/>
<path d="M24.2754 36L25.7928 29.6249L21.4307 31.5L24.0861 20.4375H18.9648L20.2926 15H36.6033L35.2756 20.4375H29.9654L28.8273 23.4375L34.7065 21L24.2754 36ZM26.9309 28.3123L26.1722 32.0624L32.4308 22.6877L27.3099 24.9379L29.586 19.6877H34.7065L35.6549 15.7502H20.8616L19.9132 19.6877H25.0341L22.5683 30.1877L26.9309 28.313V28.3123Z" fill="white"/>
</g>
<rect x="1.5" y="1.5" width="45" height="45" rx="22.5" stroke="white" stroke-width="3"/>
<defs>
<clipPath id="clip0_3224_9828">
<rect width="48" height="48" rx="24" fill="white"/>
</clipPath>
</defs>
</svg>
