<svg width="60" height="60" viewBox="0 0 60 60" fill="none" xmlns="http://www.w3.org/2000/svg">
<rect x="1.125" y="1.125" width="57.75" height="57.75" rx="28.875" fill="#F2F4F7"/>
<path fill-rule="evenodd" clip-rule="evenodd" d="M43.0836 16.9165C40.3108 14.1437 35.2572 14.4749 29.9916 17.3139C29.2054 17.7371 29.2643 19.4751 30.0085 19.9297C34.0979 22.4593 37.5412 25.9076 40.0647 30.0008C40.5173 30.7456 42.2754 30.7712 42.6861 30.0083C42.5895 29.8285 42.49 29.649 42.3876 29.4698C42.4895 29.649 42.589 29.8285 42.6861 30.0083C45.5252 24.7428 45.8564 19.6893 43.0836 16.9165ZM37.2236 22.7764C35.7176 21.2624 34.0676 19.8989 32.297 18.7052C34.3355 17.7625 36.2774 17.2571 37.9222 17.2571C39.3929 17.2571 40.6269 17.6604 41.4824 18.5158C43.2974 20.3308 43.0817 23.8438 41.295 27.7031C40.0997 25.9336 38.7362 24.2837 37.2236 22.7764Z" fill="#FFC750"/>
<path fill-rule="evenodd" clip-rule="evenodd" d="M44.3102 33.8049C43.8902 32.491 43.3471 31.2198 42.6881 30.0081C42.2717 29.234 40.5177 29.2573 40.0667 30.0006C38.8161 32.0459 37.3246 33.9338 35.6244 35.6239C33.9377 37.325 32.053 38.8177 30.0107 40.0699C29.2662 40.5245 29.2327 42.2767 29.9937 42.6854C32.7967 44.1976 35.5394 44.9983 37.911 44.9983C39.993 44.9983 41.789 44.3814 43.0855 43.0847C45.1146 41.0558 45.548 37.7607 44.3102 33.8049ZM41.4843 41.4835C39.6693 43.2986 36.1582 43.081 32.299 41.2943C34.0696 40.1006 35.7196 38.7371 37.2256 37.2232C38.7389 35.7187 40.103 34.0713 41.2989 32.3039C43.0836 36.1614 43.2994 39.6704 41.4843 41.4835Z" fill="#FF6895"/>
<path fill-rule="evenodd" clip-rule="evenodd" d="M29.9923 17.3135C28.7804 16.6536 27.5084 16.1105 26.1937 15.6914C22.2398 14.4538 18.9445 14.887 16.9156 16.9159C15.6191 18.2125 15.002 20.0088 15.002 22.0909C15.002 24.4625 15.8027 27.2069 17.313 30.0099C17.7238 30.7709 19.476 30.7365 19.9307 29.9911C22.4608 25.8981 25.9121 22.4527 30.0094 19.9294C30.7492 19.4799 30.7646 17.7282 29.9925 17.3137L29.9923 17.3135ZM18.706 27.7027C16.9191 23.8433 16.7017 20.3304 18.5168 18.5154C19.9194 17.1128 22.4065 16.8762 25.518 17.8529C26.2632 18.0886 26.9927 18.3712 27.7021 18.6989C24.1622 21.1057 21.1097 24.1607 18.706 27.7027Z" fill="#5FC5A6"/>
<path fill-rule="evenodd" clip-rule="evenodd" d="M30.0092 40.0694C27.9601 38.8189 26.0689 37.3263 24.3763 35.6238C22.6737 33.9314 21.181 32.0403 19.9303 29.9912C19.4792 29.252 17.7272 29.2379 17.3126 30.01C16.6542 31.2211 16.1117 32.4917 15.6924 33.8048C14.4527 37.7607 14.888 41.0558 16.915 43.0847C18.1871 44.3548 19.9549 45.0001 22.0709 45.0001C23.4722 44.979 24.8621 44.7454 26.1933 44.3074C27.5077 43.8875 28.7796 43.3444 29.9919 42.6854C30.6032 42.3581 30.7481 40.5207 30.0089 40.0696L30.0092 40.0694ZM25.5177 42.1478C22.4061 43.1223 19.9192 42.8859 18.5166 41.4833C17.114 40.0809 16.8774 37.5936 17.8523 34.4821C18.0877 33.7375 18.3703 33.0086 18.6983 32.2999C19.896 34.0685 21.262 35.7172 22.777 37.2229C24.282 38.7389 25.9315 40.1043 27.702 41.2997C26.9928 41.6289 26.2633 41.9121 25.5179 42.1476L25.5177 42.1478Z" fill="#5666F6"/>
<path fill-rule="evenodd" clip-rule="evenodd" d="M24.9473 29.8633L29.999 21.925L35.0507 29.8633L29.999 32.75L24.9473 29.8633Z" fill="#1F294F"/>
<path fill-rule="evenodd" clip-rule="evenodd" d="M24.9473 31.2197L29.999 34.1063L35.0507 31.2197L29.999 38.0755L24.9473 31.2197Z" fill="#1F294F"/>
<path fill-rule="evenodd" clip-rule="evenodd" d="M32.2968 18.7043C31.5122 19.0705 30.7483 19.4793 30.0085 19.929C29.264 19.4743 28.4936 19.0636 27.7012 18.6989C28.4409 18.1989 29.2052 17.7364 29.9914 17.3132C30.7636 17.7278 31.5321 18.1915 32.2968 18.7043Z" fill="#5F9A34"/>
<path fill-rule="evenodd" clip-rule="evenodd" d="M42.6859 30.0078C42.2608 30.7954 41.7971 31.5616 41.2966 32.3036C40.9283 31.5139 40.517 30.745 40.0645 30.0003C40.5155 29.2571 40.9262 28.4901 41.2946 27.7026C41.8057 28.4653 42.2694 29.2337 42.6859 30.0078Z" fill="#FF512F"/>
<path fill-rule="evenodd" clip-rule="evenodd" d="M32.2968 41.2945C32.1378 41.4025 31.9789 41.5065 31.8198 41.6086C31.225 41.9919 30.6151 42.3512 29.9915 42.6856C29.2305 42.2768 28.4671 41.815 27.7012 41.3002C28.4936 40.9354 29.264 40.5247 30.0085 40.0701C30.7475 40.5211 31.5115 40.9299 32.2968 41.2945Z" fill="#552990"/>
<path fill-rule="evenodd" clip-rule="evenodd" d="M19.9301 29.9909C19.4755 30.7364 19.0641 31.5074 18.698 32.3001C18.1994 31.5595 17.7371 30.7952 17.3125 30.0099C17.7384 29.2182 18.2033 28.4482 18.7055 27.7026C19.0701 28.4879 19.4791 29.2519 19.9301 29.9909Z" fill="#204FA0"/>
<rect x="1.125" y="1.125" width="57.75" height="57.75" rx="28.875" stroke="white" stroke-width="2.25"/>
</svg>
