<svg width="48" height="48" viewBox="0 0 48 48" fill="none" xmlns="http://www.w3.org/2000/svg">
<rect x="1.2" y="1.2" width="45.6" height="45.6" rx="22.8" fill="#2C56DD"/>
<path d="M9.7015 25.2207C9.70163 25.3785 9.75154 25.5328 9.84491 25.6639C9.93827 25.7951 10.0709 25.8972 10.2261 25.9575C10.3812 26.0178 10.5519 26.0335 10.7165 26.0026C10.8811 25.9717 11.0323 25.8957 11.151 25.784C11.2696 25.6724 11.3504 25.5301 11.383 25.3754C11.4157 25.2206 11.3988 25.0601 11.3345 24.9144C11.2702 24.7686 11.1613 24.644 11.0217 24.5564C10.8821 24.4688 10.7179 24.4221 10.55 24.4221C10.4385 24.422 10.328 24.4426 10.225 24.4828C10.1219 24.5229 10.0283 24.5817 9.9495 24.6559C9.87067 24.7301 9.80819 24.8182 9.76564 24.9151C9.72308 25.012 9.70129 25.1159 9.7015 25.2207ZM35.1791 37.4417C35.1685 37.4416 35.158 37.4445 35.1491 37.4501C35.1402 37.4556 35.1333 37.4635 35.1292 37.4728C35.1251 37.482 35.124 37.4922 35.126 37.5021C35.1281 37.5119 35.1332 37.5209 35.1408 37.528C35.1483 37.5351 35.1579 37.54 35.1684 37.5419C35.1789 37.5438 35.1897 37.5428 35.1996 37.5389C35.2094 37.5351 35.2178 37.5285 35.2237 37.5202C35.2296 37.5118 35.2327 37.502 35.2326 37.492C35.2324 37.4787 35.2267 37.466 35.2167 37.4567C35.2067 37.4473 35.1933 37.4419 35.1791 37.4417ZM33.6202 38.1607C33.6061 38.1605 33.5921 38.1629 33.579 38.1678C33.5659 38.1728 33.5539 38.1801 33.5438 38.1894C33.5338 38.1987 33.5258 38.2098 33.5203 38.222C33.5148 38.2342 33.512 38.2474 33.5119 38.2606C33.5111 38.2744 33.5133 38.2882 33.5183 38.3011C33.5234 38.3141 33.5312 38.3259 33.5413 38.336C33.5514 38.346 33.5635 38.354 33.577 38.3594C33.5905 38.3649 33.605 38.3677 33.6197 38.3677C33.6344 38.3677 33.6489 38.3649 33.6624 38.3594C33.6759 38.354 33.688 38.346 33.6981 38.336C33.7082 38.3259 33.716 38.3141 33.7211 38.3011C33.7261 38.2882 33.7283 38.2744 33.7275 38.2606C33.7273 38.234 33.7159 38.2085 33.6958 38.1898C33.6757 38.1711 33.6485 38.1606 33.6202 38.1607ZM31.9845 38.7221C31.9417 38.7221 31.9008 38.738 31.8706 38.7664C31.8403 38.7948 31.8234 38.8334 31.8234 38.8735C31.8234 38.9137 31.8403 38.9522 31.8706 38.9806C31.9008 39.009 31.9417 39.025 31.9845 39.025C32.0272 39.025 32.0682 39.009 32.0984 38.9806C32.1286 38.9522 32.1456 38.9137 32.1456 38.8735C32.1456 38.8334 32.1286 38.7948 32.0984 38.7664C32.0682 38.738 32.0272 38.7221 31.9845 38.7221ZM30.289 39.1181C30.2336 39.1202 30.1812 39.1423 30.1427 39.1799C30.1043 39.2175 30.0828 39.2676 30.0828 39.3197C30.0828 39.3718 30.1043 39.422 30.1427 39.4595C30.1812 39.4971 30.2336 39.5192 30.289 39.5213C30.3179 39.5223 30.3467 39.5179 30.3737 39.5083C30.4007 39.4986 30.4253 39.4839 30.4462 39.4651C30.467 39.4463 30.4836 39.4237 30.4949 39.3987C30.5062 39.3737 30.512 39.3469 30.512 39.3197C30.512 39.2925 30.5062 39.2657 30.4949 39.2407C30.4836 39.2157 30.467 39.1931 30.4462 39.1743C30.4253 39.1555 30.4007 39.1408 30.3737 39.1311C30.3467 39.1215 30.3179 39.1171 30.289 39.1181ZM28.5539 39.343C28.5007 39.3425 28.4485 39.3569 28.404 39.3844C28.3595 39.4118 28.3247 39.4511 28.304 39.4972C28.2833 39.5433 28.2776 39.5941 28.2877 39.6432C28.2978 39.6924 28.3233 39.7375 28.3608 39.7731C28.3983 39.8086 28.4461 39.8328 28.4983 39.8427C28.5505 39.8525 28.6046 39.8476 28.6538 39.8285C28.703 39.8094 28.745 39.7769 28.7746 39.7353C28.8041 39.6937 28.8198 39.6447 28.8197 39.5947C28.8194 39.5283 28.7914 39.4647 28.7417 39.4176C28.6919 39.3705 28.6245 39.3437 28.5539 39.343ZM26.7971 39.3954C26.7335 39.3954 26.6714 39.4131 26.6185 39.4463C26.5656 39.4795 26.5244 39.5267 26.5 39.5819C26.4757 39.6371 26.4693 39.6978 26.4816 39.7565C26.494 39.8151 26.5245 39.8689 26.5695 39.9112C26.6144 39.9535 26.6716 39.9824 26.7339 39.9941C26.7963 40.0059 26.8609 40 26.9197 39.9772C26.9784 39.9544 27.0287 39.9157 27.0641 39.8661C27.0995 39.8165 27.1185 39.7581 27.1186 39.6983C27.1189 39.6586 27.1107 39.6191 27.0946 39.5823C27.0785 39.5455 27.0549 39.5121 27.025 39.4839C26.9951 39.4558 26.9596 39.4334 26.9204 39.4183C26.8813 39.4031 26.8394 39.3953 26.7971 39.3954ZM25.0367 39.2745C24.9625 39.2747 24.89 39.2955 24.8285 39.3344C24.7669 39.3733 24.719 39.4285 24.6908 39.4929C24.6626 39.5574 24.6553 39.6283 24.67 39.6967C24.6846 39.765 24.7205 39.8277 24.773 39.8769C24.8256 39.9261 24.8925 39.9596 24.9652 39.973C25.038 39.9865 25.1134 39.9793 25.1818 39.9525C25.2503 39.9257 25.3088 39.8804 25.3499 39.8224C25.391 39.7644 25.4128 39.6962 25.4127 39.6265C25.4127 39.5801 25.403 39.5342 25.384 39.4914C25.3651 39.4486 25.3374 39.4098 25.3025 39.3771C25.2675 39.3444 25.226 39.3185 25.1804 39.3009C25.1348 39.2833 25.086 39.2743 25.0367 39.2745ZM23.2976 38.9759C23.2126 38.9759 23.1296 38.9996 23.0591 39.044C22.9885 39.0884 22.9335 39.1515 22.9011 39.2253C22.8687 39.2991 22.8604 39.3803 22.8771 39.4585C22.8939 39.5368 22.9349 39.6086 22.9951 39.6649C23.0553 39.7212 23.132 39.7594 23.2153 39.7747C23.2987 39.7901 23.385 39.7818 23.4633 39.7509C23.5416 39.7201 23.6084 39.6681 23.6553 39.6015C23.7021 39.5349 23.7269 39.4567 23.7264 39.3769C23.726 39.2703 23.6806 39.1682 23.6002 39.0931C23.5198 39.0179 23.411 38.9758 23.2976 38.9759ZM21.6038 38.4725C21.5085 38.4727 21.4154 38.4993 21.3363 38.5492C21.2571 38.599 21.1955 38.6698 21.1591 38.7526C21.1228 38.8354 21.1134 38.9265 21.1321 39.0143C21.1508 39.1021 21.1968 39.1827 21.2643 39.246C21.3317 39.3092 21.4176 39.3522 21.5111 39.3696C21.6045 39.3869 21.7014 39.3778 21.7894 39.3435C21.8773 39.3091 21.9525 39.2509 22.0053 39.1764C22.0581 39.1019 22.0862 39.0143 22.0861 38.9247C22.0858 38.8047 22.0348 38.6897 21.9444 38.6049C21.8539 38.5201 21.7315 38.4725 21.6038 38.4725ZM19.9894 37.7637C19.8833 37.7635 19.7796 37.7929 19.6914 37.8482C19.6031 37.9034 19.5343 37.982 19.4936 38.0741C19.4529 38.1661 19.4421 38.2674 19.4627 38.3652C19.4833 38.463 19.5343 38.5528 19.6093 38.6234C19.6842 38.6939 19.7797 38.7419 19.8837 38.7614C19.9877 38.7809 20.0955 38.7709 20.1934 38.7328C20.2914 38.6946 20.3751 38.63 20.434 38.5471C20.4929 38.4642 20.5243 38.3668 20.5242 38.2671C20.5243 38.201 20.5105 38.1356 20.4836 38.0746C20.4567 38.0135 20.4174 37.958 20.3677 37.9113C20.318 37.8645 20.2591 37.8274 20.1941 37.8021C20.1292 37.7768 20.0596 37.7637 19.9894 37.7637ZM19.0696 37.4139C19.0696 37.3041 19.035 37.1968 18.9701 37.1055C18.9052 37.0141 18.8129 36.943 18.705 36.901C18.5971 36.8589 18.4783 36.8479 18.3638 36.8694C18.2492 36.8908 18.1439 36.9437 18.0613 37.0213C17.9787 37.099 17.9225 37.1979 17.8997 37.3056C17.8769 37.4133 17.8886 37.5249 17.9333 37.6264C17.978 37.7278 18.0537 37.8146 18.1508 37.8756C18.248 37.9366 18.3622 37.9691 18.479 37.9691C18.5566 37.9694 18.6335 37.9552 18.7053 37.9274C18.7771 37.8996 18.8423 37.8587 18.8972 37.8071C18.9521 37.7555 18.9956 37.6942 19.0252 37.6267C19.0548 37.5592 19.0699 37.4869 19.0696 37.4139ZM17.1044 35.7794C16.9773 35.7793 16.853 35.8146 16.7473 35.8809C16.6415 35.9472 16.5591 36.0415 16.5104 36.1519C16.4617 36.2623 16.4489 36.3837 16.4736 36.5009C16.4983 36.6181 16.5595 36.7258 16.6494 36.8103C16.7392 36.8948 16.8537 36.9524 16.9784 36.9757C17.1031 36.999 17.2323 36.9871 17.3497 36.9413C17.4672 36.8956 17.5675 36.8181 17.6381 36.7188C17.7087 36.6194 17.7463 36.5026 17.7463 36.3831C17.7457 36.2232 17.678 36.07 17.5577 35.9569C17.4375 35.8438 17.2745 35.78 17.1044 35.7794ZM15.8818 34.5367C15.7439 34.5365 15.6089 34.5748 15.4941 34.6467C15.3793 34.7186 15.2898 34.8209 15.2369 34.9407C15.184 35.0605 15.1701 35.1923 15.1969 35.3195C15.2237 35.4468 15.2901 35.5636 15.3876 35.6554C15.4851 35.7471 15.6093 35.8096 15.7447 35.835C15.88 35.8603 16.0202 35.8473 16.1477 35.7977C16.2751 35.7481 16.3841 35.664 16.4607 35.5561C16.5373 35.4483 16.5782 35.3215 16.5781 35.1918C16.5781 35.0182 16.5048 34.8516 16.3742 34.7288C16.2437 34.6059 16.0666 34.5368 15.8818 34.5367ZM14.8367 34.5669C14.9852 34.567 15.1303 34.5257 15.2538 34.4483C15.3773 34.3709 15.4736 34.2608 15.5305 34.1319C15.5874 34.003 15.6024 33.8612 15.5735 33.7243C15.5447 33.5874 15.4733 33.4617 15.3684 33.363C15.2635 33.2642 15.1298 33.197 14.9842 33.1696C14.8387 33.1423 14.6878 33.1562 14.5506 33.2096C14.4134 33.2629 14.2962 33.3533 14.2136 33.4692C14.1311 33.5852 14.087 33.7216 14.087 33.8611C14.0867 33.9538 14.1059 34.0456 14.1435 34.1313C14.1811 34.217 14.2363 34.2948 14.3059 34.3604C14.3756 34.426 14.4583 34.478 14.5494 34.5134C14.6405 34.5488 14.7382 34.567 14.8367 34.5669ZM14.7859 32.4145C14.7857 32.2652 14.7386 32.1194 14.6503 31.9953C14.562 31.8713 14.4365 31.7747 14.2898 31.7176C14.1431 31.6606 13.9817 31.6457 13.826 31.6749C13.6703 31.704 13.5273 31.7759 13.4151 31.8815C13.3028 31.987 13.2264 32.1215 13.1954 32.2679C13.1645 32.4143 13.1804 32.566 13.2411 32.7039C13.3018 32.8418 13.4047 32.9596 13.5367 33.0426C13.6687 33.1255 13.8239 33.1698 13.9826 33.1699C14.1957 33.1698 14.4 33.0902 14.5506 32.9485C14.7013 32.8069 14.7859 32.6148 14.7859 32.4145ZM41.4825 26.1229C41.4699 26.1229 41.4577 26.1274 41.4485 26.1357C41.4394 26.1439 41.4341 26.1552 41.4336 26.167C41.4338 26.1792 41.439 26.1908 41.4481 26.1995C41.4572 26.2081 41.4696 26.2131 41.4825 26.2133C41.4889 26.2132 41.4952 26.212 41.501 26.2096C41.5068 26.2072 41.5121 26.2038 41.5166 26.1995C41.521 26.1952 41.5245 26.1901 41.5268 26.1845C41.5291 26.179 41.5302 26.173 41.5301 26.167C41.5301 26.1612 41.5289 26.1554 41.5265 26.15C41.5241 26.1446 41.5205 26.1397 41.5161 26.1356C41.5117 26.1315 41.5064 26.1283 41.5007 26.1261C41.4949 26.1239 41.4887 26.1229 41.4825 26.1229ZM40.9592 27.6581C40.9402 27.658 40.9217 27.6632 40.9059 27.673C40.8901 27.6828 40.8778 27.6968 40.8704 27.7132C40.8631 27.7296 40.8612 27.7477 40.8648 27.7651C40.8684 27.7826 40.8775 27.7986 40.8909 27.8112C40.9042 27.8238 40.9213 27.8324 40.9398 27.8359C40.9584 27.8394 40.9776 27.8376 40.9951 27.8308C41.0126 27.8239 41.0275 27.8124 41.038 27.7976C41.0485 27.7828 41.054 27.7654 41.054 27.7476C41.054 27.7358 41.0516 27.7242 41.0469 27.7134C41.0421 27.7025 41.0351 27.6926 41.0263 27.6843C41.0175 27.676 41.007 27.6694 40.9955 27.6649C40.984 27.6604 40.9716 27.6581 40.9592 27.6581ZM40.2619 29.1316C40.2333 29.1318 40.2055 29.1399 40.1819 29.1549C40.1583 29.17 40.1399 29.1913 40.1292 29.2161C40.1184 29.2409 40.1157 29.2682 40.1214 29.2945C40.1271 29.3208 40.141 29.3448 40.1612 29.3637C40.1815 29.3826 40.2073 29.3954 40.2353 29.4005C40.2633 29.4057 40.2922 29.4029 40.3186 29.3925C40.3449 29.3822 40.3673 29.3647 40.3831 29.3424C40.3989 29.3201 40.4073 29.2938 40.4072 29.267C40.4072 29.2491 40.4034 29.2314 40.3961 29.215C40.3887 29.1985 40.378 29.1835 40.3645 29.1709C40.351 29.1583 40.335 29.1484 40.3174 29.1416C40.2997 29.1349 40.2809 29.1315 40.2619 29.1316ZM39.3989 30.5304C39.3611 30.5306 39.3241 30.5412 39.2928 30.5611C39.2614 30.5809 39.237 30.6091 39.2226 30.642C39.2082 30.6748 39.2046 30.711 39.212 30.7458C39.2195 30.7807 39.2378 30.8127 39.2646 30.8378C39.2914 30.8628 39.3256 30.8799 39.3627 30.8867C39.3998 30.8936 39.4382 30.8899 39.4731 30.8763C39.5081 30.8626 39.5379 30.8395 39.5588 30.8099C39.5798 30.7803 39.5909 30.7455 39.5909 30.71C39.5908 30.6863 39.5858 30.6629 39.5761 30.6411C39.5665 30.6193 39.5523 30.5995 39.5345 30.5828C39.5166 30.5661 39.4955 30.5529 39.4722 30.5439C39.449 30.5349 39.424 30.5304 39.3989 30.5304ZM38.3794 31.8334C38.3321 31.8337 38.2859 31.8472 38.2467 31.8722C38.2076 31.8972 38.1771 31.9325 38.1593 31.9737C38.1414 32.0149 38.1369 32.0601 38.1463 32.1037C38.1557 32.1473 38.1787 32.1873 38.2122 32.2187C38.2458 32.2501 38.2885 32.2714 38.3349 32.28C38.3813 32.2887 38.4294 32.2842 38.4732 32.2671C38.5169 32.2501 38.5543 32.2213 38.5806 32.1844C38.607 32.1474 38.6211 32.1039 38.6212 32.0595C38.6212 32.0297 38.6149 32.0002 38.6027 31.9727C38.5905 31.9452 38.5727 31.9202 38.5502 31.8992C38.5278 31.8782 38.5011 31.8616 38.4718 31.8503C38.4425 31.839 38.4111 31.8332 38.3794 31.8334ZM37.2139 33.0283C37.1569 33.0282 37.1012 33.0441 37.0537 33.0738C37.0063 33.1035 36.9693 33.1458 36.9475 33.1953C36.9256 33.2448 36.9199 33.2992 36.931 33.3518C36.942 33.4043 36.9694 33.4526 37.0097 33.4905C37.05 33.5284 37.1013 33.5543 37.1572 33.5647C37.2131 33.5752 37.2711 33.5699 37.3237 33.5494C37.3764 33.5289 37.4214 33.4942 37.4531 33.4496C37.4847 33.4051 37.5016 33.3527 37.5016 33.2991C37.5017 33.2636 37.4943 33.2284 37.4798 33.1955C37.4654 33.1627 37.4442 33.1328 37.4175 33.1077C37.3908 33.0825 37.359 33.0625 37.3241 33.0489C37.2891 33.0353 37.2517 33.0283 37.2139 33.0283ZM35.9165 34.1033C35.8501 34.1035 35.7853 34.1223 35.7302 34.1571C35.6752 34.192 35.6324 34.2414 35.6072 34.2991C35.582 34.3569 35.5756 34.4203 35.5888 34.4815C35.602 34.5426 35.6341 34.5987 35.6812 34.6427C35.7283 34.6867 35.7882 34.7165 35.8534 34.7285C35.9185 34.7405 35.986 34.734 36.0472 34.71C36.1085 34.6859 36.1607 34.6453 36.1974 34.5933C36.2341 34.5413 36.2536 34.4803 36.2534 34.4179C36.2535 34.3764 36.2448 34.3353 36.2278 34.2969C36.2109 34.2586 36.186 34.2238 36.1547 34.1946C36.1234 34.1653 36.0862 34.1422 36.0453 34.1265C36.0044 34.1108 35.9606 34.1029 35.9165 34.1033ZM34.4999 35.0385C34.4239 35.0381 34.3494 35.059 34.286 35.0984C34.2225 35.1379 34.173 35.1941 34.1436 35.2601C34.1142 35.326 34.1063 35.3986 34.1208 35.4688C34.1354 35.539 34.1717 35.6035 34.2253 35.6542C34.2789 35.705 34.3473 35.7396 34.4219 35.7538C34.4964 35.7679 34.5737 35.761 34.6441 35.7338C34.7144 35.7066 34.7746 35.6604 34.817 35.601C34.8594 35.5417 34.8821 35.4718 34.8822 35.4003C34.882 35.3048 34.8418 35.2133 34.7702 35.1455C34.6986 35.0778 34.6015 35.0393 34.4999 35.0385ZM32.9626 35.7988C32.8771 35.7987 32.7934 35.8224 32.7222 35.8669C32.651 35.9115 32.5955 35.9749 32.5626 36.0491C32.5298 36.1234 32.5211 36.2051 32.5377 36.284C32.5543 36.3629 32.5955 36.4353 32.656 36.4922C32.7164 36.5491 32.7935 36.5878 32.8774 36.6035C32.9613 36.6192 33.0482 36.6111 33.1272 36.5803C33.2063 36.5495 33.2738 36.4973 33.3212 36.4304C33.3687 36.3635 33.3939 36.2849 33.3938 36.2045C33.3934 36.0971 33.3478 35.9942 33.2671 35.9182C33.1863 35.8422 33.0769 35.7993 32.9626 35.7988ZM31.3243 36.3615C31.2291 36.3612 31.136 36.3874 31.0567 36.4369C30.9774 36.4864 30.9155 36.557 30.8789 36.6396C30.8423 36.7222 30.8326 36.8131 30.851 36.9009C30.8695 36.9887 30.9152 37.0694 30.9825 37.1327C31.0498 37.196 31.1355 37.2391 31.2289 37.2566C31.3222 37.274 31.419 37.265 31.5069 37.2307C31.5948 37.1964 31.6699 37.1384 31.7227 37.0639C31.7755 36.9894 31.8035 36.9019 31.8033 36.8124C31.8033 36.693 31.7528 36.5784 31.663 36.4939C31.5732 36.4093 31.4514 36.3617 31.3243 36.3615ZM29.6164 36.7171C29.5119 36.7169 29.4097 36.7459 29.3227 36.8003C29.2357 36.8548 29.1678 36.9322 29.1276 37.0229C29.0875 37.1136 29.0769 37.2134 29.0971 37.3098C29.1173 37.4062 29.1675 37.4948 29.2412 37.5643C29.315 37.6339 29.4091 37.6814 29.5115 37.7007C29.614 37.72 29.7203 37.7103 29.8169 37.6728C29.9135 37.6353 29.9961 37.5718 30.0542 37.4902C30.1124 37.4086 30.1435 37.3126 30.1437 37.2143C30.1436 37.0828 30.0881 36.9566 29.9892 36.8634C29.8904 36.7702 29.7563 36.7176 29.6164 36.7171ZM27.8671 36.8572C27.7532 36.8571 27.6419 36.8888 27.5472 36.9482C27.4525 37.0075 27.3786 37.092 27.335 37.1908C27.2913 37.2897 27.2798 37.3985 27.3018 37.5035C27.3239 37.6085 27.3786 37.7049 27.459 37.7807C27.5394 37.8565 27.6419 37.9082 27.7535 37.9293C27.8651 37.9503 27.9809 37.9398 28.0862 37.899C28.1914 37.8582 28.2815 37.789 28.3449 37.7002C28.4084 37.6113 28.4424 37.5068 28.4426 37.3997C28.4428 37.256 28.3823 37.1182 28.2744 37.0164C28.1664 36.9147 28.0199 36.8574 27.8671 36.8572ZM26.7308 37.3689C26.7308 37.253 26.6942 37.1397 26.6257 37.0433C26.5572 36.9469 26.4598 36.8718 26.3459 36.8274C26.232 36.7831 26.1066 36.7715 25.9857 36.7941C25.8648 36.8167 25.7537 36.8725 25.6665 36.9545C25.5793 37.0364 25.5199 37.1409 25.4959 37.2545C25.4718 37.3682 25.4842 37.4861 25.5314 37.5932C25.5785 37.7003 25.6584 37.7918 25.761 37.8562C25.8635 37.9206 25.984 37.9549 26.1073 37.9549C26.2726 37.9545 26.4309 37.8927 26.5477 37.7828C26.6645 37.673 26.7304 37.5242 26.7308 37.3689ZM25.0389 37.1237C25.039 36.9988 24.9997 36.8767 24.926 36.7729C24.8522 36.669 24.7474 36.588 24.6247 36.5402C24.502 36.4923 24.367 36.4797 24.2367 36.504C24.1064 36.5283 23.9867 36.5883 23.8927 36.6766C23.7987 36.7648 23.7346 36.8772 23.7086 36.9997C23.6826 37.1221 23.6958 37.2491 23.7465 37.3645C23.7972 37.4799 23.8832 37.5786 23.9936 37.648C24.104 37.7175 24.2338 37.7546 24.3666 37.7548C24.4549 37.7549 24.5423 37.7386 24.6238 37.707C24.7054 37.6753 24.7795 37.6289 24.842 37.5702C24.9044 37.5116 24.954 37.442 24.9878 37.3654C25.0216 37.2888 25.0389 37.2066 25.0389 37.1237ZM23.396 36.6659C23.396 36.5317 23.3537 36.4005 23.2743 36.2889C23.195 36.1773 23.0823 36.0903 22.9504 36.039C22.8185 35.9876 22.6733 35.9742 22.5333 36.0004C22.3933 36.0265 22.2646 36.0912 22.1637 36.1861C22.0627 36.281 21.994 36.4019 21.9661 36.5335C21.9382 36.6652 21.9525 36.8016 22.0072 36.9256C22.0618 37.0496 22.1543 37.1556 22.2731 37.2302C22.3918 37.3047 22.5313 37.3445 22.6741 37.3445C22.769 37.3447 22.8629 37.3273 22.9506 37.2933C23.0383 37.2592 23.118 37.2093 23.1851 37.1462C23.2521 37.0832 23.3053 37.0083 23.3415 36.9258C23.3777 36.8434 23.3962 36.7551 23.396 36.6659ZM21.8279 36.0052C21.8278 35.8625 21.7827 35.723 21.6983 35.6044C21.6139 35.4858 21.494 35.3934 21.3537 35.3388C21.2134 35.2843 21.0591 35.2701 20.9102 35.298C20.7613 35.3259 20.6246 35.3947 20.5173 35.4957C20.41 35.5967 20.337 35.7253 20.3075 35.8653C20.278 36.0052 20.2933 36.1503 20.3515 36.2821C20.4097 36.4139 20.5082 36.5265 20.6345 36.6057C20.7608 36.6849 20.9092 36.7271 21.061 36.727C21.1618 36.727 21.2616 36.7084 21.3548 36.6721C21.4479 36.6358 21.5325 36.5827 21.6037 36.5156C21.6749 36.4486 21.7314 36.369 21.7699 36.2814C21.8083 36.1938 21.828 36.1 21.8279 36.0052ZM37.4203 14.0149C37.4269 14.0154 37.4335 14.0146 37.4398 14.0126C37.4461 14.0106 37.4518 14.0073 37.4567 14.0031C37.4616 13.9989 37.4654 13.9938 37.4681 13.9881C37.4708 13.9824 37.4721 13.9762 37.4721 13.97C37.4721 13.9638 37.4708 13.9576 37.4681 13.9519C37.4654 13.9462 37.4616 13.9411 37.4567 13.9368C37.4518 13.9326 37.4461 13.9294 37.4398 13.9274C37.4335 13.9254 37.4269 13.9246 37.4203 13.9251C37.4083 13.926 37.3971 13.9312 37.389 13.9395C37.3808 13.9478 37.3763 13.9587 37.3763 13.97C37.3763 13.9813 37.3808 13.9922 37.389 14.0005C37.3971 14.0088 37.4083 14.0139 37.4203 14.0149ZM38.2406 15.5263C38.2596 15.5263 38.2782 15.521 38.294 15.5111C38.3098 15.5012 38.3221 15.4871 38.3294 15.4706C38.3367 15.4541 38.3386 15.4359 38.3349 15.4184C38.3312 15.4009 38.3221 15.3848 38.3087 15.3721C38.2953 15.3595 38.2782 15.3508 38.2596 15.3473C38.2409 15.3438 38.2216 15.3455 38.204 15.3523C38.1865 15.3591 38.1714 15.3707 38.1608 15.3855C38.1502 15.4003 38.1445 15.4177 38.1445 15.4356C38.1443 15.4475 38.1466 15.4594 38.1514 15.4704C38.1562 15.4815 38.1632 15.4915 38.1722 15.5C38.1812 15.5084 38.1918 15.5151 38.2036 15.5196C38.2153 15.5241 38.2279 15.5264 38.2406 15.5263ZM38.8896 17.109C38.9181 17.109 38.9459 17.1012 38.9696 17.0863C38.9933 17.0715 39.0117 17.0505 39.0227 17.0258C39.0336 17.0011 39.0365 16.9739 39.031 16.9477C39.0255 16.9215 39.0118 16.8974 38.9917 16.8784C38.9716 16.8595 38.946 16.8466 38.9181 16.8414C38.8902 16.8361 38.8613 16.8388 38.835 16.849C38.8088 16.8592 38.7863 16.8766 38.7705 16.8988C38.7547 16.921 38.7462 16.9471 38.7462 16.9739C38.7462 16.9916 38.7499 17.0092 38.7571 17.0255C38.7643 17.0419 38.7748 17.0568 38.7881 17.0694C38.8014 17.0819 38.8173 17.0919 38.8347 17.0987C38.8521 17.1055 38.8708 17.109 38.8896 17.109ZM39.3654 18.7475C39.4035 18.7476 39.4408 18.7371 39.4725 18.7173C39.5042 18.6975 39.529 18.6692 39.5436 18.6362C39.5582 18.6031 39.5621 18.5667 39.5547 18.5316C39.5473 18.4965 39.529 18.4642 39.502 18.4389C39.4751 18.4136 39.4408 18.3964 39.4034 18.3894C39.3661 18.3825 39.3274 18.3861 39.2922 18.3998C39.257 18.4136 39.227 18.4369 39.2059 18.4667C39.1849 18.4965 39.1737 18.5315 39.1738 18.5673C39.1738 18.591 39.1787 18.6145 39.1883 18.6363C39.1979 18.6582 39.212 18.6781 39.2298 18.6948C39.2476 18.7115 39.2688 18.7248 39.292 18.7338C39.3153 18.7429 39.3403 18.7475 39.3654 18.7475ZM39.4186 20.1994C39.4188 20.244 39.433 20.2875 39.4595 20.3245C39.486 20.3614 39.5236 20.3902 39.5675 20.4071C39.6114 20.424 39.6596 20.4283 39.7061 20.4194C39.7526 20.4106 39.7952 20.389 39.8286 20.3573C39.8621 20.3257 39.8847 20.2855 39.8938 20.2417C39.903 20.198 39.898 20.1527 39.8798 20.1115C39.8615 20.0704 39.8306 20.0353 39.7911 20.0106C39.7516 19.9859 39.7052 19.9728 39.6578 19.973C39.5941 19.9732 39.5332 19.9972 39.4884 20.0396C39.4435 20.0821 39.4184 20.1395 39.4186 20.1994ZM39.7674 21.5794C39.7105 21.5795 39.655 21.5955 39.6078 21.6252C39.5605 21.655 39.5238 21.6973 39.5021 21.7467C39.4804 21.7961 39.4747 21.8504 39.4858 21.9028C39.497 21.9553 39.5244 22.0034 39.5646 22.0412C39.6048 22.079 39.656 22.1047 39.7117 22.1152C39.7675 22.1257 39.8253 22.1204 39.8779 22.1C39.9304 22.0796 39.9754 22.045 40.007 22.0006C40.0387 21.9562 40.0557 21.904 40.0558 21.8505C40.0558 21.7786 40.0254 21.7097 39.9713 21.6588C39.9172 21.608 39.8439 21.5794 39.7674 21.5794ZM39.6909 23.1877C39.6243 23.1877 39.5592 23.2064 39.5039 23.2412C39.4486 23.2761 39.4055 23.3255 39.3801 23.3834C39.3547 23.4413 39.3481 23.5049 39.3612 23.5663C39.3742 23.6277 39.4064 23.6841 39.4536 23.7283C39.5007 23.7725 39.5608 23.8025 39.6261 23.8146C39.6914 23.8268 39.7591 23.8204 39.8206 23.7963C39.8821 23.7723 39.9346 23.7316 39.9715 23.6795C40.0084 23.6274 40.028 23.5661 40.0279 23.5035C40.028 23.462 40.0193 23.4208 40.0024 23.3824C39.9855 23.3439 39.9607 23.309 39.9294 23.2797C39.898 23.2503 39.8608 23.2271 39.8199 23.2113C39.779 23.1955 39.7352 23.1875 39.6909 23.1877ZM39.4281 24.7799C39.3522 24.7801 39.2781 24.8014 39.2151 24.8412C39.1521 24.881 39.103 24.9374 39.0741 25.0034C39.0452 25.0693 39.0377 25.1418 39.0527 25.2118C39.0676 25.2817 39.1042 25.346 39.158 25.3963C39.2117 25.4467 39.2801 25.481 39.3545 25.4948C39.429 25.5087 39.5061 25.5015 39.5762 25.4741C39.6463 25.4468 39.7062 25.4005 39.7484 25.3412C39.7905 25.2819 39.813 25.2122 39.813 25.1408C39.8131 25.0933 39.8032 25.0463 39.7839 25.0024C39.7645 24.9585 39.7362 24.9187 39.7004 24.8851C39.6646 24.8516 39.6222 24.825 39.5754 24.807C39.5287 24.7889 39.4786 24.7797 39.4281 24.7799ZM39.3776 26.7318C39.3775 26.6515 39.3521 26.5729 39.3045 26.5061C39.2569 26.4393 39.1894 26.3873 39.1103 26.3566C39.0313 26.326 38.9444 26.318 38.8605 26.3338C38.7767 26.3496 38.6997 26.3884 38.6394 26.4453C38.579 26.5022 38.538 26.5747 38.5214 26.6536C38.5049 26.7324 38.5136 26.8141 38.5465 26.8883C38.5794 26.9625 38.6349 27.0259 38.7061 27.0704C38.7773 27.1149 38.8609 27.1386 38.9464 27.1384C39.0032 27.1385 39.0594 27.128 39.1118 27.1076C39.1642 27.0872 39.2119 27.0572 39.2519 27.0194C39.292 26.9816 39.3237 26.9368 39.3453 26.8874C39.3669 26.8381 39.3778 26.7852 39.3776 26.7318ZM38.2449 27.7994C38.15 27.7994 38.0572 27.8258 37.9783 27.8754C37.8995 27.9249 37.838 27.9954 37.8017 28.0778C37.7653 28.1602 37.7558 28.2509 37.7744 28.3383C37.7929 28.4258 37.8386 28.5062 37.9056 28.5692C37.9727 28.6323 38.0582 28.6752 38.1513 28.6926C38.2443 28.71 38.3408 28.7011 38.4284 28.667C38.5161 28.6328 38.591 28.5751 38.6437 28.5009C38.6965 28.4267 38.7246 28.3395 38.7246 28.2503C38.7247 28.1911 38.7123 28.1324 38.6882 28.0777C38.6642 28.0229 38.6288 27.9732 38.5843 27.9313C38.5397 27.8894 38.4868 27.8562 38.4286 27.8335C38.3703 27.8109 38.3079 27.7993 38.2449 27.7994ZM37.3386 29.1732C37.2343 29.1734 37.1324 29.2025 37.0458 29.2571C36.9592 29.3116 36.8917 29.3891 36.8519 29.4797C36.8121 29.5703 36.8017 29.6699 36.8221 29.766C36.8426 29.8621 36.8928 29.9504 36.9666 30.0197C37.0404 30.0889 37.1343 30.1361 37.2366 30.1551C37.3389 30.1742 37.4449 30.1644 37.5412 30.1268C37.6375 30.0893 37.7198 30.0258 37.7777 29.9443C37.8356 29.8628 37.8665 29.7669 37.8665 29.6689C37.8665 29.6038 37.8529 29.5393 37.8263 29.4791C37.7998 29.4189 37.7609 29.3642 37.7119 29.3182C37.6628 29.2722 37.6046 29.2357 37.5406 29.2108C37.4765 29.1859 37.4079 29.1732 37.3386 29.1732ZM36.2413 30.4219C36.1274 30.4218 36.0161 30.4535 35.9214 30.513C35.8266 30.5724 35.7528 30.6569 35.7092 30.7559C35.6657 30.8548 35.6543 30.9636 35.6765 31.0686C35.6988 31.1736 35.7537 31.27 35.8342 31.3457C35.9148 31.4213 36.0175 31.4728 36.1292 31.4936C36.2409 31.5144 36.3567 31.5036 36.4618 31.4625C36.567 31.4214 36.6568 31.3519 36.72 31.2628C36.7831 31.1737 36.8167 31.069 36.8165 30.962C36.8165 30.891 36.8016 30.8207 36.7727 30.7551C36.7438 30.6896 36.7014 30.63 36.648 30.5798C36.5946 30.5297 36.5312 30.4899 36.4614 30.4628C36.3916 30.4357 36.3168 30.4218 36.2413 30.4219ZM34.9744 31.524C34.8511 31.524 34.7306 31.5583 34.628 31.6227C34.5255 31.6871 34.4456 31.7787 34.3984 31.8858C34.3512 31.9929 34.3389 32.1107 34.3629 32.2244C34.387 32.3381 34.4464 32.4425 34.5336 32.5245C34.6207 32.6064 34.7318 32.6622 34.8528 32.6848C34.9737 32.7075 35.0991 32.6959 35.213 32.6515C35.3269 32.6071 35.4243 32.532 35.4928 32.4356C35.5613 32.3393 35.5978 32.226 35.5978 32.11C35.5978 31.9546 35.5322 31.8055 35.4152 31.6956C35.2983 31.5857 35.1397 31.524 34.9744 31.524ZM33.5595 32.4623C33.4268 32.4624 33.297 32.4994 33.1867 32.5687C33.0764 32.6381 32.9904 32.7366 32.9396 32.8519C32.8888 32.9672 32.8755 33.094 32.9013 33.2164C32.9272 33.3387 32.9911 33.4512 33.0849 33.5394C33.1787 33.6277 33.2982 33.6878 33.4284 33.7123C33.5585 33.7367 33.6935 33.7243 33.8161 33.6767C33.9388 33.6291 34.0437 33.5483 34.1176 33.4447C34.1915 33.341 34.231 33.2191 34.2312 33.0943C34.2313 33.0114 34.214 32.9292 34.1802 32.8525C34.1465 32.7758 34.0971 32.7061 34.0347 32.6474C33.9723 32.5888 33.8982 32.5422 33.8167 32.5104C33.7352 32.4786 33.6478 32.4623 33.5595 32.4623ZM32.0199 33.218C31.8775 33.2179 31.7383 33.2575 31.6198 33.3317C31.5013 33.406 31.4088 33.5116 31.3542 33.6352C31.2995 33.7588 31.2851 33.8949 31.3127 34.0262C31.3402 34.1575 31.4086 34.2782 31.5092 34.3731C31.6097 34.4679 31.7379 34.5325 31.8775 34.5589C32.0171 34.5852 32.1619 34.5721 32.2936 34.5211C32.4253 34.4701 32.5379 34.3836 32.6173 34.2724C32.6966 34.1613 32.7392 34.0305 32.7395 33.8966C32.7398 33.8076 32.7213 33.7194 32.6853 33.6371C32.6493 33.5548 32.5963 33.48 32.5295 33.417C32.4626 33.354 32.3832 33.3039 32.2958 33.2698C32.2083 33.2356 32.1146 33.2181 32.0199 33.218ZM30.3816 33.7797C30.2297 33.7798 30.0813 33.8223 29.9551 33.9017C29.8289 33.9811 29.7306 34.0939 29.6726 34.2258C29.6146 34.3577 29.5995 34.5028 29.6293 34.6428C29.659 34.7828 29.7322 34.9113 29.8396 35.0122C29.9471 35.1131 30.0839 35.1817 30.2329 35.2095C30.3818 35.2373 30.5362 35.2229 30.6764 35.1682C30.8167 35.1135 30.9365 35.0209 31.0208 34.9022C31.1051 34.7835 31.1501 34.6439 31.15 34.5012C31.1499 34.3097 31.0688 34.1262 30.9247 33.9909C30.7806 33.8556 30.5852 33.7796 30.3816 33.7797ZM25.3753 8.09006C25.3847 8.08994 25.3939 8.08721 25.4017 8.0822C25.4095 8.07719 25.4155 8.07013 25.419 8.06191C25.4226 8.05369 25.4235 8.04467 25.4216 8.03598C25.4197 8.0273 25.4151 8.01933 25.4084 8.01308C25.4017 8.00683 25.3932 8.00258 25.3839 8.00086C25.3747 7.99914 25.3651 8.00002 25.3564 8.0034C25.3477 8.00678 25.3402 8.0125 25.3349 8.01985C25.3296 8.0272 25.3268 8.03585 25.3267 8.04472C25.3267 8.0507 25.328 8.05662 25.3304 8.06215C25.3329 8.06767 25.3365 8.07268 25.341 8.07689C25.3455 8.08111 25.3508 8.08444 25.3567 8.0867C25.3626 8.08896 25.3689 8.09011 25.3753 8.09006ZM27.056 8.62739C27.0749 8.62727 27.0934 8.62187 27.1092 8.61188C27.1249 8.60189 27.1371 8.58775 27.1443 8.57125C27.1515 8.55474 27.1533 8.5366 27.1495 8.51912C27.1458 8.50164 27.1366 8.48559 27.1232 8.473C27.1097 8.46041 27.0926 8.45184 27.074 8.44837C27.0554 8.4449 27.0361 8.44668 27.0186 8.45349C27.0011 8.4603 26.9861 8.47184 26.9755 8.48664C26.9649 8.50145 26.9592 8.51887 26.9592 8.53671C26.9591 8.54865 26.9616 8.56049 26.9665 8.57153C26.9713 8.58257 26.9784 8.5926 26.9874 8.60103C26.9964 8.60947 27.0071 8.61614 27.0189 8.62066C27.0307 8.62519 27.0433 8.62747 27.056 8.62739ZM28.673 9.32635C28.7015 9.32629 28.7293 9.31828 28.753 9.30334C28.7767 9.28839 28.7951 9.26719 28.8059 9.2424C28.8167 9.21762 28.8195 9.19037 28.8139 9.16411C28.8082 9.13784 28.7944 9.11374 28.7742 9.09486C28.7539 9.07598 28.7282 9.06316 28.7002 9.05803C28.6723 9.0529 28.6433 9.05569 28.617 9.06604C28.5907 9.0764 28.5683 9.09385 28.5525 9.11619C28.5368 9.13853 28.5285 9.16476 28.5286 9.19156C28.5288 9.22742 28.5441 9.26175 28.5711 9.28702C28.5982 9.31229 28.6348 9.32643 28.673 9.32635ZM30.2073 10.1835C30.2453 10.1834 30.2823 10.1727 30.3138 10.1528C30.3453 10.1329 30.3698 10.1047 30.3842 10.0717C30.3986 10.0387 30.4023 10.0025 30.3949 9.96752C30.3874 9.93256 30.369 9.90046 30.3422 9.87529C30.3153 9.85011 30.2811 9.83299 30.2439 9.82608C30.2067 9.81916 30.1681 9.82277 30.1331 9.83645C30.098 9.85012 30.0681 9.87325 30.047 9.90291C30.026 9.93257 30.0147 9.96744 30.0147 10.0031C30.0147 10.0269 30.0196 10.0504 30.0293 10.0723C30.039 10.0943 30.0532 10.1142 30.0711 10.131C30.089 10.1478 30.1102 10.1611 30.1336 10.1701C30.157 10.1791 30.182 10.1837 30.2073 10.1835ZM31.6416 11.186C31.6889 11.186 31.7351 11.1728 31.7745 11.1481C31.8138 11.1234 31.8445 11.0883 31.8626 11.0472C31.8807 11.0061 31.8854 10.9609 31.8762 10.9173C31.867 10.8737 31.8442 10.8336 31.8107 10.8022C31.7773 10.7707 31.7346 10.7493 31.6882 10.7406C31.6418 10.7319 31.5937 10.7364 31.55 10.7534C31.5063 10.7704 31.469 10.7993 31.4427 10.8362C31.4164 10.8732 31.4024 10.9167 31.4024 10.9612C31.4023 10.9907 31.4084 11.02 31.4204 11.0473C31.4324 11.0746 31.45 11.0994 31.4722 11.1203C31.4945 11.1412 31.5209 11.1578 31.5499 11.1691C31.579 11.1803 31.6101 11.1861 31.6416 11.186ZM32.9607 12.3276C33.0178 12.3279 33.0737 12.3123 33.1213 12.2827C33.169 12.2531 33.2062 12.2109 33.2283 12.1614C33.2504 12.1119 33.2563 12.0573 33.2454 12.0047C33.2345 11.952 33.2072 11.9035 33.1669 11.8654C33.1267 11.8273 33.0753 11.8013 33.0194 11.7907C32.9634 11.7801 32.9053 11.7853 32.8525 11.8058C32.7997 11.8262 32.7546 11.8609 32.7228 11.9055C32.691 11.95 32.6739 12.0025 32.6739 12.0562C32.6739 12.1278 32.704 12.1966 32.7578 12.2475C32.8115 12.2983 32.8844 12.3271 32.9607 12.3276ZM34.1521 13.5923C34.2187 13.5922 34.2837 13.5735 34.3389 13.5386C34.3942 13.5037 34.4372 13.4542 34.4625 13.3963C34.4878 13.3384 34.4943 13.2748 34.4811 13.2135C34.4679 13.1522 34.4357 13.0959 34.3884 13.0518C34.3412 13.0077 34.2811 12.9778 34.2158 12.9658C34.1505 12.9538 34.0828 12.9603 34.0214 12.9845C33.9601 13.0087 33.9077 13.0495 33.8709 13.1016C33.8342 13.1538 33.8148 13.2151 33.8151 13.2777C33.8155 13.3614 33.8511 13.4415 33.9143 13.5005C33.9775 13.5595 34.063 13.5925 34.1521 13.5923ZM35.1969 14.9711C35.2728 14.971 35.3471 14.9498 35.4102 14.9101C35.4734 14.8704 35.5226 14.8139 35.5516 14.748C35.5806 14.682 35.5882 14.6094 35.5734 14.5393C35.5585 14.4693 35.522 14.405 35.4682 14.3545C35.4145 14.304 35.3461 14.2696 35.2716 14.2556C35.1971 14.2417 35.1198 14.2488 35.0496 14.2761C34.9795 14.3034 34.9194 14.3497 34.8772 14.409C34.8349 14.4684 34.8124 14.5381 34.8123 14.6096C34.8122 14.6571 34.8221 14.7041 34.8414 14.748C34.8607 14.7919 34.889 14.8318 34.9247 14.8654C34.9605 14.899 35.0029 14.9256 35.0496 14.9437C35.0963 14.9619 35.1463 14.9712 35.1969 14.9711ZM36.053 16.4606C36.1382 16.4603 36.2215 16.4362 36.2922 16.3915C36.363 16.3467 36.418 16.2833 36.4504 16.2091C36.4828 16.135 36.4911 16.0535 36.4743 15.9749C36.4575 15.8963 36.4163 15.8242 36.3558 15.7676C36.2954 15.7111 36.2186 15.6726 36.1349 15.657C36.0512 15.6415 35.9646 15.6496 35.8858 15.6804C35.8071 15.7111 35.7398 15.7631 35.6924 15.8298C35.6451 15.8965 35.6198 15.9748 35.6198 16.055C35.6199 16.1084 35.6312 16.1612 35.653 16.2105C35.6748 16.2597 35.7068 16.3045 35.747 16.3422C35.7872 16.3798 35.8349 16.4097 35.8874 16.43C35.9399 16.4503 35.9962 16.4607 36.053 16.4606ZM36.2193 17.5929C36.2191 17.6822 36.247 17.7696 36.2996 17.8439C36.3521 17.9183 36.427 17.9763 36.5147 18.0107C36.6024 18.0451 36.6989 18.0542 36.7921 18.0369C36.8853 18.0197 36.971 17.9768 37.0382 17.9138C37.1055 17.8508 37.1514 17.7704 37.1701 17.6828C37.1887 17.5953 37.1793 17.5045 37.1431 17.422C37.1069 17.3394 37.0454 17.2689 36.9665 17.2192C36.8875 17.1695 36.7947 17.143 36.6997 17.1429C36.6367 17.1427 36.5743 17.1542 36.516 17.1767C36.4577 17.1992 36.4047 17.2324 36.3601 17.2742C36.3155 17.316 36.2801 17.3657 36.2559 17.4204C36.2318 17.4751 36.2193 17.5337 36.2193 17.5929ZM36.5973 19.2006C36.5975 19.2987 36.6286 19.3946 36.6868 19.476C36.7449 19.5575 36.8274 19.621 36.9238 19.6584C37.0203 19.6959 37.1264 19.7056 37.2288 19.6864C37.3311 19.6671 37.4251 19.6198 37.4988 19.5504C37.5726 19.481 37.6228 19.3926 37.6431 19.2963C37.6635 19.2001 37.653 19.1004 37.6131 19.0097C37.5731 18.9191 37.5055 18.8416 37.4187 18.7871C37.332 18.7326 37.23 18.7034 37.1256 18.7034C37.0561 18.7032 36.9873 18.7159 36.923 18.7408C36.8588 18.7657 36.8004 18.8024 36.7513 18.8486C36.7022 18.8948 36.6633 18.9497 36.6369 19.0101C36.6105 19.0705 36.597 19.1353 36.5973 19.2006ZM36.746 20.8444C36.746 20.9516 36.7799 21.0563 36.8433 21.1454C36.9068 21.2345 36.9969 21.3039 37.1022 21.3449C37.2076 21.3858 37.3236 21.3965 37.4354 21.3755C37.5472 21.3545 37.6499 21.3028 37.7305 21.2269C37.8111 21.1511 37.8659 21.0544 37.888 20.9493C37.9102 20.8441 37.8987 20.7351 37.8549 20.6361C37.8112 20.5371 37.7372 20.4526 37.6423 20.3931C37.5474 20.3336 37.4359 20.302 37.3218 20.3021C37.2461 20.3021 37.1712 20.3161 37.1012 20.3434C37.0313 20.3706 36.9678 20.4106 36.9143 20.461C36.8608 20.5113 36.8184 20.5711 36.7895 20.6369C36.7606 20.7027 36.7458 20.7732 36.746 20.8444ZM37.9128 22.4974C37.9128 22.3814 37.8762 22.2681 37.8077 22.1718C37.7392 22.0754 37.6419 22.0003 37.5279 21.9559C37.414 21.9116 37.2887 21.8999 37.1677 21.9226C37.0468 21.9452 36.9357 22.001 36.8485 22.083C36.7613 22.1649 36.7019 22.2693 36.6779 22.383C36.6538 22.4967 36.6662 22.6146 36.7134 22.7216C36.7605 22.8287 36.8405 22.9203 36.943 22.9847C37.0455 23.0491 37.166 23.0834 37.2894 23.0834C37.4547 23.0834 37.6133 23.0217 37.7302 22.9118C37.8471 22.8019 37.9128 22.6528 37.9128 22.4974ZM37.6995 24.1343C37.6994 24.0094 37.66 23.8873 37.5861 23.7835C37.5122 23.6797 37.4072 23.5988 37.2843 23.5511C37.1615 23.5034 37.0264 23.491 36.8961 23.5155C36.7658 23.54 36.6462 23.6003 36.5523 23.6887C36.4585 23.7772 36.3946 23.8898 36.3689 24.0123C36.3431 24.1349 36.3566 24.2619 36.4077 24.3772C36.4587 24.4925 36.545 24.591 36.6557 24.6603C36.7663 24.7295 36.8963 24.7663 37.0291 24.766C37.2071 24.7658 37.3777 24.6991 37.5035 24.5807C37.6292 24.4622 37.6997 24.3017 37.6995 24.1343ZM37.2631 25.7247C37.2631 25.591 37.2209 25.4602 37.1419 25.3489C37.0629 25.2377 36.9506 25.1509 36.8191 25.0997C36.6877 25.0484 36.5431 25.0349 36.4035 25.0608C36.2639 25.0868 36.1356 25.1511 36.0348 25.2455C35.9341 25.34 35.8653 25.4604 35.8373 25.5916C35.8093 25.7227 35.8233 25.8587 35.8775 25.9824C35.9317 26.1061 36.0237 26.2119 36.1418 26.2865C36.2599 26.3611 36.3989 26.4011 36.5412 26.4015C36.6359 26.4017 36.7297 26.3843 36.8173 26.3504C36.9048 26.3165 36.9844 26.2667 37.0514 26.2038C37.1185 26.141 37.1717 26.0663 37.208 25.9841C37.2443 25.9019 37.2631 25.8137 37.2631 25.7247ZM35.8397 26.5196C35.6878 26.5199 35.5394 26.5624 35.4133 26.6419C35.2871 26.7214 35.1889 26.8343 35.1309 26.9662C35.073 27.0982 35.058 27.2433 35.0878 27.3833C35.1175 27.5233 35.1908 27.6519 35.2983 27.7527C35.4058 27.8536 35.5426 27.9222 35.6916 27.95C35.8406 27.9778 35.995 27.9634 36.1352 27.9087C36.2755 27.854 36.3954 27.7615 36.4798 27.6427C36.5641 27.524 36.6091 27.3845 36.6091 27.2417C36.6091 27.1468 36.5892 27.0528 36.5505 26.9651C36.5118 26.8775 36.455 26.7978 36.3836 26.7308C36.3121 26.6637 36.2273 26.6105 36.134 26.5743C36.0407 26.5381 35.9406 26.5195 35.8397 26.5196ZM12.4004 11.9069C12.413 11.9069 12.4251 11.9022 12.434 11.8938C12.4429 11.8854 12.448 11.874 12.448 11.8622C12.4479 11.8503 12.4428 11.8389 12.434 11.8304C12.4251 11.8219 12.413 11.8171 12.4004 11.8168C12.3876 11.8168 12.3753 11.8216 12.3663 11.8301C12.3572 11.8386 12.3521 11.8501 12.3521 11.8622C12.3521 11.8681 12.3533 11.874 12.3557 11.8795C12.3581 11.885 12.3617 11.8899 12.3662 11.8941C12.3707 11.8983 12.376 11.9015 12.3819 11.9037C12.3878 11.9059 12.3941 11.907 12.4004 11.9069ZM13.958 11.1826C13.9769 11.1825 13.9953 11.1771 14.0109 11.1672C14.0266 11.1572 14.0387 11.1431 14.0458 11.1267C14.0529 11.1102 14.0547 11.0921 14.0509 11.0748C14.0471 11.0574 14.0378 11.0414 14.0244 11.029C14.011 11.0165 13.9939 11.0081 13.9753 11.0047C13.9568 11.0014 13.9376 11.0033 13.9202 11.0102C13.9028 11.0171 13.888 11.0287 13.8776 11.0435C13.8672 11.0583 13.8617 11.0757 13.8619 11.0935C13.8619 11.1053 13.8645 11.1169 13.8694 11.1278C13.8743 11.1386 13.8814 11.1485 13.8903 11.1568C13.8992 11.1651 13.9098 11.1716 13.9214 11.176C13.933 11.1805 13.9455 11.1827 13.958 11.1826ZM15.5937 10.6169C15.6224 10.6172 15.6506 10.6094 15.6746 10.5945C15.6986 10.5797 15.7173 10.5585 15.7284 10.5336C15.7396 10.5087 15.7426 10.4813 15.7371 10.4548C15.7315 10.4283 15.7178 10.4039 15.6975 10.3848C15.6772 10.3657 15.6513 10.3527 15.6232 10.3475C15.595 10.3422 15.5658 10.345 15.5393 10.3554C15.5128 10.3658 15.4902 10.3834 15.4743 10.4059C15.4585 10.4284 15.4501 10.4548 15.4503 10.4818C15.4503 10.5176 15.4654 10.5519 15.4923 10.5772C15.5192 10.6026 15.5557 10.6168 15.5937 10.6169ZM17.2889 10.2153C17.3268 10.2151 17.3639 10.2044 17.3953 10.1844C17.4268 10.1644 17.4512 10.1361 17.4656 10.1031C17.4799 10.07 17.4835 10.0337 17.4759 9.99876C17.4683 9.9638 17.4499 9.93173 17.4229 9.90663C17.3959 9.88152 17.3616 9.8645 17.3243 9.85772C17.2871 9.85093 17.2485 9.85469 17.2135 9.86852C17.1785 9.88234 17.1486 9.90562 17.1277 9.93539C17.1068 9.96517 17.0957 10.0001 17.0959 10.0358C17.0959 10.0595 17.1008 10.0831 17.1105 10.105C17.1202 10.1269 17.1345 10.1468 17.1524 10.1635C17.1704 10.1802 17.1917 10.1934 17.2151 10.2023C17.2385 10.2112 17.2636 10.2156 17.2889 10.2153ZM19.0247 9.98428C19.072 9.98416 19.1183 9.97085 19.1577 9.94603C19.197 9.9212 19.2277 9.88598 19.2457 9.84481C19.2638 9.80363 19.2685 9.75835 19.2592 9.71466C19.2499 9.67098 19.2271 9.63086 19.1936 9.59937C19.1601 9.56787 19.1174 9.54641 19.071 9.53769C19.0245 9.52897 18.9763 9.53338 18.9325 9.55037C18.8887 9.56736 18.8512 9.59616 18.8248 9.63315C18.7984 9.67013 18.7843 9.71364 18.7841 9.75819C18.784 9.78792 18.7901 9.8174 18.8021 9.8449C18.8141 9.87241 18.8318 9.8974 18.8542 9.91843C18.8766 9.93945 18.9031 9.9561 18.9324 9.96741C18.9617 9.97871 18.993 9.98445 19.0247 9.98428ZM20.7818 9.92722C20.8388 9.9271 20.8944 9.9111 20.9417 9.88124C20.989 9.85138 21.0259 9.809 21.0476 9.75947C21.0692 9.70993 21.0748 9.65547 21.0636 9.60296C21.0523 9.55045 21.0248 9.50225 20.9844 9.46446C20.944 9.42667 20.8926 9.40099 20.8367 9.39066C20.7808 9.38033 20.7229 9.38582 20.6703 9.40643C20.6177 9.42704 20.5728 9.46185 20.5412 9.50645C20.5097 9.55105 20.4929 9.60345 20.493 9.65701C20.4929 9.69264 20.5003 9.72793 20.5148 9.76085C20.5293 9.79377 20.5505 9.82366 20.5774 9.84879C20.6043 9.87392 20.6362 9.8938 20.6712 9.90726C20.7063 9.92072 20.7439 9.92751 20.7818 9.92722ZM22.5406 10.0429C22.607 10.043 22.672 10.0246 22.7272 9.99001C22.7825 9.95541 22.8257 9.90617 22.8512 9.84852C22.8767 9.79088 22.8834 9.72741 22.8705 9.66616C22.8577 9.60491 22.8257 9.54863 22.7788 9.50443C22.7319 9.46024 22.6721 9.43013 22.607 9.4179C22.5418 9.40568 22.4743 9.41189 22.4129 9.43575C22.3515 9.45962 22.2991 9.50006 22.2622 9.55197C22.2253 9.60387 22.2055 9.66491 22.2055 9.72734C22.2053 9.76878 22.2138 9.80986 22.2306 9.84819C22.2473 9.88653 22.272 9.92137 22.3032 9.9507C22.3343 9.98004 22.3713 10.0033 22.4121 10.0191C22.4528 10.0349 22.4965 10.043 22.5406 10.0429ZM24.282 10.3359C24.3578 10.3359 24.432 10.3148 24.4951 10.2752C24.5583 10.2356 24.6075 10.1792 24.6365 10.1134C24.6656 10.0475 24.6733 9.97494 24.6586 9.90496C24.6438 9.83498 24.6074 9.77068 24.5538 9.72017C24.5002 9.66966 24.4319 9.63522 24.3575 9.62119C24.283 9.60716 24.2059 9.61417 24.1357 9.64135C24.0655 9.66852 24.0055 9.71463 23.9632 9.77386C23.9209 9.83308 23.8982 9.90277 23.898 9.97411C23.8978 10.0216 23.9075 10.0687 23.9267 10.1126C23.9459 10.1566 23.9742 10.1965 24.0098 10.2302C24.0455 10.2638 24.088 10.2905 24.1347 10.3086C24.1814 10.3268 24.2314 10.336 24.282 10.3359ZM25.9748 10.8347C26.0602 10.8348 26.1437 10.811 26.2147 10.7665C26.2858 10.7219 26.3412 10.6585 26.3739 10.5844C26.4067 10.5102 26.4153 10.4286 26.3987 10.3499C26.3821 10.2711 26.341 10.1988 26.2807 10.142C26.2203 10.0851 26.1434 10.0464 26.0597 10.0307C25.9759 10.015 25.8891 10.023 25.8102 10.0536C25.7312 10.0843 25.6637 10.1363 25.6162 10.203C25.5687 10.2697 25.5434 10.3482 25.5433 10.4285C25.5437 10.536 25.5893 10.639 25.6701 10.715C25.7509 10.7911 25.8604 10.8341 25.9748 10.8347ZM27.5895 11.5383C27.6845 11.5386 27.7775 11.5124 27.8567 11.463C27.9358 11.4136 27.9976 11.3432 28.0342 11.2608C28.0708 11.1783 28.0805 11.0876 28.0622 10.9999C28.0438 10.9123 27.9982 10.8317 27.9312 10.7685C27.8641 10.7052 27.7786 10.6621 27.6854 10.6445C27.5922 10.627 27.4956 10.6358 27.4078 10.6699C27.32 10.7041 27.2449 10.7619 27.1921 10.8361C27.1393 10.9104 27.1111 10.9977 27.1111 11.087C27.111 11.1462 27.1232 11.2048 27.1472 11.2595C27.1712 11.3142 27.2064 11.3639 27.2508 11.4058C27.2953 11.4477 27.348 11.481 27.4061 11.5037C27.4643 11.5265 27.5266 11.5382 27.5895 11.5383ZM28.5706 11.9393C28.5705 12.0374 28.6013 12.1334 28.6592 12.215C28.7171 12.2966 28.7995 12.3603 28.8959 12.3979C28.9923 12.4356 29.0984 12.4455 29.2008 12.4264C29.3032 12.4074 29.3972 12.3602 29.4711 12.2908C29.545 12.2215 29.5953 12.1331 29.6157 12.0369C29.6361 11.9406 29.6257 11.8409 29.5858 11.7502C29.5459 11.6596 29.4782 11.5821 29.3914 11.5275C29.3047 11.473 29.2026 11.4439 29.0982 11.4439C29.029 11.4439 28.9604 11.4566 28.8964 11.4815C28.8324 11.5064 28.7743 11.5429 28.7253 11.5889C28.6763 11.6349 28.6374 11.6895 28.6109 11.7496C28.5843 11.8097 28.5707 11.8742 28.5706 11.9393ZM30.4754 13.5124C30.5891 13.5121 30.7002 13.4801 30.7946 13.4205C30.889 13.3609 30.9625 13.2764 31.0059 13.1775C31.0492 13.0787 31.0604 12.97 31.0381 12.8652C31.0158 12.7604 30.961 12.6641 30.8805 12.5886C30.8 12.513 30.6976 12.4616 30.586 12.4407C30.4745 12.4199 30.3589 12.4305 30.2538 12.4714C30.1487 12.5122 30.0589 12.5814 29.9956 12.6703C29.9323 12.7591 29.8984 12.8635 29.8982 12.9704C29.8982 13.0417 29.9131 13.1122 29.9421 13.178C29.9711 13.2438 30.0136 13.3036 30.0672 13.354C30.1208 13.4043 30.1845 13.4442 30.2545 13.4714C30.3246 13.4986 30.3996 13.5125 30.4754 13.5124ZM31.6977 14.749C31.821 14.749 31.9415 14.7146 32.0441 14.6502C32.1466 14.5858 32.2265 14.4943 32.2737 14.3872C32.3209 14.2801 32.3332 14.1623 32.3092 14.0486C32.2851 13.9349 32.2257 13.8305 32.1385 13.7485C32.0513 13.6665 31.9403 13.6107 31.8193 13.5881C31.6984 13.5655 31.573 13.5771 31.4591 13.6215C31.3452 13.6658 31.2478 13.7409 31.1793 13.8373C31.1108 13.9337 31.0742 14.047 31.0742 14.1629C31.0742 14.3184 31.1399 14.4674 31.2568 14.5773C31.3738 14.6872 31.5323 14.749 31.6977 14.749ZM32.7418 14.861C32.609 14.861 32.4791 14.898 32.3686 14.9674C32.2582 15.0367 32.1721 15.1354 32.1212 15.2507C32.0704 15.3661 32.0571 15.4931 32.083 15.6155C32.1089 15.738 32.1729 15.8505 32.2668 15.9388C32.3608 16.0271 32.4805 16.0873 32.6108 16.1116C32.7411 16.136 32.8761 16.1235 32.9988 16.0757C33.1216 16.0279 33.2265 15.947 33.3003 15.8431C33.3741 15.7393 33.4135 15.6172 33.4135 15.4924C33.4135 15.4094 33.3962 15.3273 33.3624 15.2507C33.3287 15.1741 33.2792 15.1044 33.2168 15.0458C33.1545 14.9872 33.0804 14.9406 32.9989 14.9089C32.9174 14.8772 32.83 14.8609 32.7418 14.861ZM32.876 16.9406C32.8762 17.0742 32.9185 17.2048 32.9977 17.3158C33.0768 17.4269 33.1892 17.5133 33.3206 17.5643C33.4521 17.6153 33.5966 17.6285 33.736 17.6023C33.8755 17.5761 34.0035 17.5116 34.1039 17.417C34.2043 17.3223 34.2726 17.2019 34.3002 17.0708C34.3278 16.9396 34.3134 16.8038 34.2589 16.6804C34.2043 16.5569 34.1121 16.4515 33.9938 16.3773C33.8755 16.3032 33.7365 16.2637 33.5943 16.2638C33.4998 16.2638 33.4062 16.2813 33.319 16.3153C33.2317 16.3493 33.1524 16.3992 33.0857 16.462C33.019 16.5249 32.9661 16.5995 32.9301 16.6816C32.8941 16.7638 32.8757 16.8517 32.876 16.9406ZM33.4719 18.4788C33.4718 18.6215 33.5166 18.761 33.6008 18.8797C33.685 18.9984 33.8048 19.091 33.9449 19.1457C34.0851 19.2004 34.2393 19.2149 34.3882 19.1872C34.5371 19.1595 34.6739 19.091 34.7814 18.9902C34.8888 18.8895 34.9621 18.7611 34.9919 18.6212C35.0217 18.4813 35.0068 18.3362 34.9489 18.2043C34.891 18.0724 34.7929 17.9596 34.6668 17.8802C34.5407 17.8007 34.3925 17.7582 34.2407 17.758C34.0371 17.7579 33.8418 17.8337 33.6977 17.9689C33.5535 18.104 33.4723 18.2874 33.4719 18.4788ZM34.663 19.3172C34.5016 19.3171 34.3438 19.3621 34.2095 19.4463C34.0753 19.5306 33.9706 19.6504 33.9088 19.7905C33.847 19.9307 33.8308 20.085 33.8623 20.2338C33.8937 20.3826 33.9714 20.5193 34.0855 20.6267C34.1996 20.734 34.345 20.8071 34.5033 20.8367C34.6617 20.8663 34.8258 20.8511 34.9749 20.7931C35.124 20.735 35.2515 20.6367 35.3412 20.5105C35.4309 20.3844 35.4787 20.2361 35.4787 20.0843C35.4786 19.8809 35.3927 19.6859 35.2397 19.5421C35.0868 19.3982 34.8793 19.3174 34.663 19.3172ZM6.09601 23.1016C6.08368 23.1009 6.07133 23.1026 6.05972 23.1066C6.04811 23.1105 6.03747 23.1167 6.02848 23.1246C6.01949 23.1326 6.01232 23.1422 6.00742 23.1528C6.00253 23.1635 6 23.175 6 23.1866C6 23.1982 6.00253 23.2097 6.00742 23.2204C6.01232 23.231 6.01949 23.2406 6.02848 23.2486C6.03747 23.2565 6.04811 23.2627 6.05972 23.2666C6.07133 23.2706 6.08368 23.2723 6.09601 23.2716C6.10834 23.2723 6.12069 23.2706 6.13231 23.2666C6.14392 23.2627 6.15455 23.2565 6.16354 23.2486C6.17254 23.2406 6.1797 23.231 6.1846 23.2204C6.1895 23.2097 6.19203 23.1982 6.19203 23.1866C6.19203 23.175 6.1895 23.1635 6.1846 23.1528C6.1797 23.1422 6.17254 23.1326 6.16354 23.1246C6.15455 23.1167 6.14392 23.1105 6.13231 23.1066C6.12069 23.1026 6.10834 23.1009 6.09601 23.1016ZM6.62036 21.4366C6.58451 21.4364 6.54941 21.4462 6.5195 21.4648C6.48959 21.4834 6.46623 21.5099 6.45236 21.541C6.43849 21.5721 6.43474 21.6063 6.44159 21.6394C6.44844 21.6725 6.46558 21.7029 6.49084 21.7268C6.5161 21.7507 6.54834 21.7671 6.58348 21.7737C6.61862 21.7804 6.65508 21.7771 6.68824 21.7643C6.7214 21.7515 6.74977 21.7297 6.76975 21.7018C6.78974 21.6738 6.80044 21.6409 6.80051 21.6072C6.80034 21.5622 6.78135 21.5191 6.74764 21.4872C6.71393 21.4552 6.66821 21.4371 6.62036 21.4366ZM7.58868 20.0874C7.58887 20.0368 7.57308 19.9872 7.5433 19.945C7.51352 19.9028 7.47109 19.8698 7.42139 19.8503C7.37168 19.8307 7.31692 19.8255 7.26404 19.8352C7.21117 19.845 7.16254 19.8692 7.12433 19.9049C7.08612 19.9406 7.06003 19.9862 7.04937 20.0358C7.03871 20.0855 7.04395 20.137 7.06443 20.1838C7.08491 20.2307 7.11972 20.2707 7.16444 20.299C7.20916 20.3272 7.26179 20.3424 7.31567 20.3425C7.38782 20.3426 7.45706 20.3158 7.50823 20.268C7.5594 20.2202 7.58833 20.1552 7.58868 20.0874ZM8.17865 18.985C8.25004 18.985 8.31983 18.9651 8.37918 18.9278C8.43854 18.8905 8.4848 18.8375 8.51212 18.7755C8.53944 18.7135 8.54659 18.6453 8.53266 18.5795C8.51873 18.5137 8.48436 18.4532 8.43388 18.4058C8.3834 18.3583 8.31909 18.326 8.24907 18.3129C8.17905 18.2998 8.10648 18.3065 8.04053 18.3322C7.97457 18.3579 7.9182 18.4014 7.87854 18.4572C7.83888 18.513 7.81771 18.5786 7.81771 18.6457C7.81823 18.7355 7.85642 18.8215 7.924 18.8851C7.99158 18.9486 8.08308 18.9845 8.17865 18.985ZM9.19881 17.7213C9.28833 17.7213 9.37586 17.6964 9.45032 17.6497C9.52478 17.603 9.58283 17.5365 9.61712 17.4588C9.65141 17.3811 9.6604 17.2955 9.64295 17.213C9.6255 17.1304 9.5824 17.0546 9.5191 16.9951C9.45579 16.9356 9.37514 16.8951 9.28733 16.8787C9.19953 16.8623 9.10852 16.8707 9.02582 16.903C8.94313 16.9352 8.87246 16.9898 8.82277 17.0598C8.77307 17.1298 8.74658 17.212 8.74665 17.2962C8.74656 17.352 8.7582 17.4074 8.78089 17.459C8.80358 17.5106 8.83688 17.5575 8.87889 17.5969C8.92089 17.6364 8.97077 17.6677 9.02567 17.6891C9.08057 17.7104 9.13941 17.7213 9.19881 17.7213ZM10.364 16.5652C10.4713 16.5652 10.5763 16.5352 10.6655 16.4792C10.7548 16.4231 10.8243 16.3434 10.8654 16.2502C10.9065 16.157 10.9172 16.0544 10.8963 15.9554C10.8754 15.8565 10.8237 15.7656 10.7478 15.6942C10.6719 15.6229 10.5752 15.5743 10.4699 15.5546C10.3646 15.5349 10.2555 15.545 10.1563 15.5836C10.0571 15.6222 9.97237 15.6876 9.91274 15.7715C9.8531 15.8554 9.82127 15.9541 9.82127 16.055C9.82127 16.1903 9.87845 16.3201 9.98023 16.4157C10.082 16.5114 10.2201 16.5652 10.364 16.5652ZM11.6614 15.5331C11.787 15.5333 11.9098 15.4985 12.0143 15.4331C12.1189 15.3677 12.2004 15.2747 12.2487 15.1657C12.2969 15.0567 12.3096 14.9367 12.2853 14.8209C12.261 14.7051 12.2006 14.5987 12.1119 14.5151C12.0232 14.4316 11.9102 14.3746 11.787 14.3515C11.6639 14.3284 11.5362 14.3401 11.4202 14.3853C11.3042 14.4304 11.205 14.5068 11.1352 14.605C11.0654 14.7031 11.0281 14.8185 11.0281 14.9365C11.028 15.0148 11.0444 15.0923 11.0761 15.1646C11.1079 15.237 11.1545 15.3027 11.2133 15.3581C11.2722 15.4135 11.342 15.4575 11.4189 15.4875C11.4958 15.5175 11.5782 15.533 11.6614 15.5331ZM13.0757 14.6345C13.219 14.635 13.3593 14.5954 13.4787 14.5208C13.5981 14.4463 13.6913 14.34 13.7464 14.2157C13.8016 14.0913 13.8162 13.9543 13.7885 13.8221C13.7607 13.6899 13.6919 13.5684 13.5906 13.473C13.4894 13.3776 13.3603 13.3126 13.2197 13.2862C13.0791 13.2598 12.9334 13.2733 12.8009 13.3248C12.6685 13.3764 12.5553 13.4637 12.4757 13.5758C12.3961 13.6879 12.3536 13.8196 12.3538 13.9544C12.354 14.1344 12.4301 14.3071 12.5654 14.4345C12.7007 14.562 12.8841 14.6339 13.0757 14.6345ZM14.608 13.9035C14.7691 13.9036 14.9266 13.8587 15.0605 13.7747C15.1945 13.6906 15.2989 13.5711 15.3606 13.4313C15.4223 13.2914 15.4385 13.1375 15.4072 12.989C15.3759 12.8405 15.2984 12.704 15.1846 12.5969C15.0708 12.4898 14.9257 12.4168 14.7678 12.3871C14.6098 12.3575 14.4461 12.3726 14.2972 12.4304C14.1484 12.4883 14.0211 12.5863 13.9315 12.7121C13.842 12.8379 13.7941 12.9859 13.7939 13.1373C13.7939 13.2379 13.8148 13.3375 13.8557 13.4304C13.8966 13.5233 13.9565 13.6078 14.0321 13.6789C14.1077 13.7501 14.1975 13.8066 14.2963 13.8451C14.3951 13.8836 14.5011 13.9035 14.608 13.9035Z" fill="white"/>
<path d="M16.2403 13.3685C16.4565 13.3677 16.6652 13.294 16.8285 13.1608C16.9919 13.0276 17.099 12.8438 17.1305 12.6427C17.2283 12.775 17.3608 12.8813 17.5153 12.9511C17.6697 13.0209 17.8408 13.052 18.0118 13.0412C18.1828 13.0304 18.3479 12.9782 18.491 12.8896C18.6341 12.801 18.7504 12.6791 18.8286 12.5357C18.9242 12.6555 19.0468 12.7539 19.1876 12.824C19.3284 12.8941 19.4839 12.9341 19.6431 12.9412C19.8022 12.9483 19.9611 12.9223 20.1083 12.8651C20.2555 12.8078 20.3875 12.7207 20.4948 12.61C20.6737 12.8477 20.9453 13.0093 21.2504 13.0595C21.5555 13.1098 21.8694 13.0447 22.1236 12.8784C22.1665 12.9452 22.2171 13.0072 22.2746 13.0635C21.9852 13.092 21.7139 13.2096 21.5028 13.3978C21.3722 13.2856 21.2179 13.2006 21.0499 13.1483C20.8819 13.096 20.704 13.0776 20.528 13.0944C20.3519 13.1112 20.1816 13.1627 20.0282 13.2456C19.8748 13.3285 19.7417 13.4409 19.6377 13.5755C19.4293 13.4207 19.1713 13.3369 18.9057 13.3377C18.6791 13.338 18.4573 13.3991 18.2664 13.5139C18.0755 13.6286 17.9234 13.7922 17.8281 13.9854C17.6775 13.8891 17.5042 13.8288 17.3232 13.8097C17.1421 13.7906 16.9589 13.8132 16.7893 13.8758C16.6197 13.9383 16.4689 14.0387 16.35 14.1684C16.231 14.2981 16.1475 14.4531 16.1067 14.6199C15.9476 14.5287 15.7655 14.479 15.5791 14.4758C15.3928 14.4726 15.2089 14.5161 15.0463 14.6018C14.8837 14.6876 14.7484 14.8124 14.6541 14.9636C14.5599 15.1148 14.5102 15.2868 14.51 15.462V15.4657C14.3611 15.3848 14.1921 15.3422 14.02 15.3423C13.848 15.3423 13.679 15.3849 13.53 15.4658C13.3811 15.5467 13.2574 15.6631 13.1715 15.8032C13.0856 15.9434 13.0405 16.1023 13.0407 16.264C13.0411 16.3505 13.0542 16.4366 13.0797 16.5197C12.9376 16.4363 12.7735 16.3919 12.6059 16.3914C12.4258 16.3913 12.2497 16.4413 12.0999 16.5353C11.9501 16.6293 11.8333 16.7629 11.7643 16.9192C11.6952 17.0756 11.677 17.2477 11.7121 17.4137C11.7471 17.5798 11.8337 17.7324 11.9609 17.8522C12.0882 17.972 12.2504 18.0536 12.427 18.0867C12.6036 18.1199 12.7867 18.1031 12.9531 18.0384C13.1195 17.9737 13.2618 17.8641 13.362 17.7234C13.4621 17.5827 13.5157 17.4173 13.5158 17.248C13.5147 17.1762 13.5043 17.1049 13.485 17.0354C13.6304 17.1248 13.7985 17.1762 13.972 17.1843C14.1456 17.1924 14.3183 17.1569 14.4724 17.0816C14.6266 17.0062 14.7566 16.8937 14.8492 16.7555C14.9418 16.6173 14.9936 16.4584 14.9993 16.2951C15.1669 16.3957 15.3616 16.4492 15.5604 16.4494C15.5788 16.4494 15.5988 16.4469 15.6181 16.4469C15.3913 16.641 15.252 16.9093 15.229 17.1968C15.0625 17.1672 14.8911 17.1725 14.7271 17.2123C14.563 17.2521 14.4104 17.3254 14.2799 17.427C14.1495 17.5287 14.0445 17.6561 13.9724 17.8002C13.9003 17.9444 13.863 18.1017 13.863 18.2609C13.8627 18.3033 13.8658 18.3457 13.8722 18.3877C13.8303 18.3824 13.7881 18.38 13.7458 18.3803C13.6026 18.3803 13.4607 18.4067 13.3283 18.4583C13.196 18.5098 13.0757 18.5853 12.9744 18.6805C12.8731 18.7757 12.7927 18.8887 12.7379 19.0132C12.683 19.1376 12.6548 19.2709 12.6548 19.4056C12.6541 19.5168 12.6736 19.6272 12.7122 19.7323C12.6899 19.7323 12.6689 19.7295 12.6466 19.7295C12.4635 19.7293 12.2837 19.7751 12.1257 19.8621C11.9677 19.9491 11.8372 20.0741 11.7479 20.2244C11.6585 20.3746 11.6133 20.5445 11.6171 20.7166C11.6209 20.8887 11.6735 21.0567 11.7695 21.2033C11.7596 21.2027 11.7496 21.2027 11.7396 21.2033C11.545 21.2031 11.3547 21.258 11.1937 21.3609C11.0327 21.4637 10.9084 21.6098 10.8371 21.7801C10.7657 21.9503 10.7505 22.1369 10.7935 22.3153C10.8365 22.4938 10.9357 22.656 11.0781 22.7807C11.0637 22.7807 11.0506 22.7767 11.0374 22.7767C10.8259 22.7763 10.6207 22.8449 10.457 22.9709C10.2933 23.097 10.1813 23.2725 10.14 23.4676C10.0988 23.6627 10.1309 23.8651 10.2309 24.0404C10.331 24.2157 10.4926 24.3529 10.6883 24.4285C10.884 24.5041 11.1016 24.5135 11.3038 24.455C11.506 24.3965 11.6803 24.2738 11.797 24.1079C11.9136 23.942 11.9653 23.7431 11.9433 23.5453C11.9212 23.3475 11.8267 23.163 11.676 23.0235C11.6963 23.0235 11.718 23.0259 11.7396 23.0259C11.8733 23.026 12.0055 23 12.1279 22.9495C12.2503 22.8991 12.3602 22.8253 12.4507 22.7329V22.7637C12.4502 22.9894 12.5263 23.2093 12.6679 23.3915C12.491 23.4505 12.3337 23.5524 12.212 23.6867C12.0902 23.8211 12.0082 23.9832 11.9743 24.1568C11.9404 24.3304 11.9557 24.5094 12.0187 24.6756C12.0817 24.8419 12.1902 24.9897 12.3332 25.104C12.1602 25.1784 12.0128 25.2969 11.9078 25.446C11.8029 25.5952 11.7445 25.7691 11.7394 25.9478C11.7343 26.1266 11.7826 26.3032 11.8788 26.4575C11.9751 26.6117 12.1155 26.7375 12.284 26.8205C12.1073 26.9046 11.9624 27.0379 11.8692 27.2022C11.776 27.3664 11.7389 27.5538 11.7631 27.7386C11.7873 27.9234 11.8715 28.0967 12.0043 28.2348C12.1371 28.373 12.312 28.4693 12.5052 28.5106C12.3224 28.597 12.1759 28.7389 12.0896 28.9133C12.0033 29.0877 11.9822 29.2844 12.0297 29.4715C12.0772 29.6586 12.1904 29.8251 12.3512 29.9441C12.5119 30.0631 12.7107 30.1276 12.9153 30.1272C12.9714 30.1268 13.0273 30.1215 13.0823 30.1111C12.8801 30.1745 12.7107 30.3072 12.608 30.4828C12.5053 30.6584 12.4768 30.864 12.5284 31.0585C12.5799 31.2529 12.7075 31.422 12.8858 31.5318C13.0642 31.6416 13.28 31.6842 13.4902 31.651C13.7005 31.6177 13.8896 31.5112 14.0199 31.3525C14.1502 31.1939 14.212 30.9949 14.1931 30.7953C14.1741 30.5957 14.0757 30.4102 13.9175 30.2758C13.7594 30.1414 13.5531 30.0681 13.3399 30.0704C13.2876 30.0706 13.2354 30.0753 13.1841 30.0846C13.3698 30.0316 13.5325 29.924 13.6483 29.7776C13.7641 29.6312 13.8268 29.4537 13.8272 29.2712C13.8272 29.2496 13.822 29.2314 13.82 29.2095C13.9628 29.3572 14.1504 29.4601 14.3575 29.5044C14.2326 29.642 14.1523 29.8103 14.1262 29.9895C14.1 30.1687 14.1291 30.3511 14.21 30.5152C14.2908 30.6793 14.4201 30.8181 14.5824 30.9152C14.7447 31.0124 14.9332 31.0636 15.1256 31.063H15.1476C15.0436 31.1975 14.9813 31.3565 14.9675 31.5222C14.9537 31.688 14.9891 31.8541 15.0696 32.0021C15.15 32.1502 15.2726 32.2744 15.4236 32.361C15.5745 32.4475 15.7481 32.4932 15.9249 32.4927C16.0193 32.4924 16.1131 32.4793 16.2035 32.4538C16.1125 32.5829 16.0604 32.7328 16.0528 32.8875C16.0451 33.0422 16.0822 33.1959 16.16 33.3324C16.2379 33.4688 16.3536 33.583 16.4949 33.6626C16.6362 33.7422 16.7978 33.7843 16.9625 33.7845C17.1691 33.7842 17.3693 33.7167 17.5292 33.5936C17.4201 33.7125 17.3501 33.8587 17.3277 34.0144C17.3053 34.17 17.3315 34.3284 17.4031 34.4703C17.4746 34.6122 17.5884 34.7316 17.7308 34.8138C17.8731 34.8961 18.0377 34.9377 18.2048 34.9337C18.3718 34.9296 18.5339 34.8801 18.6716 34.7911C18.8092 34.7021 18.9164 34.5774 18.9801 34.4322C19.0438 34.287 19.0613 34.1276 19.0304 33.9732C18.9995 33.8189 18.9217 33.6763 18.8062 33.5627C18.9192 33.5608 19.0312 33.5427 19.1383 33.5091V33.5202C19.1384 33.7029 19.1921 33.8821 19.2936 34.038C19.3951 34.1939 19.5404 34.3204 19.7135 34.4036C19.6616 34.393 19.6085 34.3877 19.5554 34.3879C19.3539 34.3867 19.159 34.4548 19.0073 34.5793C18.8556 34.7039 18.7577 34.8764 18.7319 35.0642C18.7062 35.252 18.7544 35.4421 18.8676 35.5988C18.9807 35.7555 19.1509 35.8678 19.346 35.9146C19.5412 35.9615 19.7478 35.9396 19.927 35.8531C20.1062 35.7666 20.2455 35.6214 20.3187 35.445C20.3918 35.2686 20.3938 35.0731 20.3242 34.8954C20.2546 34.7177 20.1183 34.5701 19.9409 34.4804C20.0235 34.5006 20.1085 34.511 20.1939 34.5112C20.3911 34.5113 20.5844 34.4592 20.7517 34.361C20.7675 34.5427 20.8388 34.7162 20.9571 34.8607C21.0753 35.0052 21.2355 35.1145 21.4183 35.1754C21.601 35.2363 21.7987 35.2462 21.9873 35.204C22.176 35.1618 22.3476 35.0693 22.4816 34.9375C22.5132 35.124 22.6063 35.2965 22.7477 35.4306C22.8892 35.5647 23.0719 35.6536 23.27 35.6848C23.4681 35.7161 23.6717 35.688 23.8519 35.6046C24.0322 35.5212 24.18 35.3867 24.2745 35.2201C24.3176 35.4204 24.4355 35.5996 24.6069 35.7252C24.7783 35.8508 24.992 35.9146 25.2091 35.9049C25.4262 35.8953 25.6325 35.8128 25.7906 35.6725C25.9486 35.5323 26.048 35.3434 26.0707 35.1402C26.0822 35.2968 26.1419 35.447 26.2426 35.5723C26.3432 35.6976 26.4804 35.7928 26.6376 35.8461C26.7947 35.8994 26.9649 35.9086 27.1275 35.8726C27.2901 35.8366 27.4381 35.7569 27.5533 35.6433C27.6686 35.5296 27.7463 35.3869 27.7768 35.2325C27.8074 35.0782 27.7895 34.9188 27.7254 34.7738C27.6613 34.6287 27.5537 34.5044 27.4158 34.4158C27.2778 34.3273 27.1155 34.2783 26.9485 34.275C27.0269 34.1977 27.0926 34.1099 27.1434 34.0143C27.2801 34.1461 27.4533 34.2394 27.6433 34.2839C27.8333 34.3283 28.0328 34.3221 28.2193 34.266C28.0575 34.3689 27.9403 34.523 27.889 34.7003C27.8378 34.8775 27.8559 35.0662 27.9401 35.2319C28.0243 35.3977 28.1689 35.5295 28.3477 35.6035C28.5266 35.6775 28.7277 35.6888 28.9146 35.6352C29.1015 35.5816 29.2617 35.4668 29.3662 35.3115C29.4706 35.1563 29.5124 34.971 29.4838 34.7893C29.4553 34.6076 29.3583 34.4416 29.2105 34.3214C29.0628 34.2012 28.8741 34.1348 28.6787 34.1343C28.5993 34.135 28.5205 34.1472 28.4451 34.1704C28.5658 34.1017 28.6706 34.011 28.7535 33.9036C28.8363 33.7962 28.8955 33.6744 28.9274 33.5452C29.1086 33.6904 29.339 33.7699 29.5771 33.7694C29.8439 33.7689 30.0997 33.6691 30.2884 33.4917C30.4771 33.3143 30.5833 33.0739 30.5838 32.8231C30.5838 32.816 30.5815 32.8086 30.5815 32.8027C30.7445 32.9145 30.9412 32.9746 31.1429 32.9742C31.269 32.9743 31.3938 32.9511 31.5103 32.9059C31.6268 32.8606 31.7327 32.7942 31.8219 32.7105C31.9111 32.6268 31.9819 32.5273 32.0302 32.4179C32.0785 32.3084 32.1033 32.1911 32.1034 32.0726C32.1039 31.9838 32.0898 31.8955 32.0617 31.8107C32.2422 31.9255 32.4606 31.9754 32.677 31.9514C32.8934 31.9274 33.0935 31.8311 33.2407 31.68C33.3878 31.5289 33.4724 31.3332 33.4788 31.1284C33.4853 30.9237 33.4132 30.7236 33.2758 30.5646C33.4306 30.6927 33.6299 30.7633 33.8362 30.7632C34.0653 30.7632 34.285 30.6777 34.4469 30.5254C34.6089 30.3732 34.6999 30.1667 34.6999 29.9514C34.6999 29.736 34.6089 29.5295 34.4469 29.3773C34.285 29.225 34.0653 29.1395 33.8362 29.1395C33.6142 29.1395 33.4009 29.2208 33.2417 29.3662C33.2391 29.2595 33.2201 29.1538 33.1852 29.0522H33.1951C33.3895 29.0521 33.5802 29.0016 33.7461 28.9063C33.912 28.8109 34.0467 28.6744 34.1355 28.5118C34.125 28.5605 34.1195 28.6101 34.1191 28.6599C34.1167 28.8495 34.1883 29.0334 34.3202 29.1769C34.4522 29.3204 34.6355 29.4135 34.8354 29.4387C35.0354 29.4639 35.2383 29.4195 35.4058 29.3138C35.5733 29.208 35.6939 29.0484 35.7448 28.8648C35.7957 28.6813 35.7734 28.4866 35.682 28.3174C35.5907 28.1483 35.4368 28.0164 35.2491 27.9467C35.0615 27.8769 34.8532 27.8741 34.6635 27.9388C34.4739 28.0034 34.3159 28.1311 34.2195 28.2977C34.2407 28.2201 34.2517 28.1404 34.2523 28.0602C34.2514 27.8748 34.1957 27.6933 34.0915 27.5358C34.2848 27.521 34.4693 27.454 34.623 27.3429C34.7767 27.2317 34.8929 27.0812 34.9577 26.9094C35.0224 26.7376 35.033 26.5518 34.9881 26.3745C34.9432 26.1972 34.8447 26.0359 34.7045 25.91C34.9026 25.8801 35.0857 25.7925 35.2281 25.6596C35.3705 25.5267 35.465 25.3552 35.4983 25.1692C35.5315 24.9832 35.5019 24.7921 35.4135 24.6227C35.3252 24.4534 35.1825 24.3143 35.0057 24.2252C35.2191 24.1852 35.4101 24.0745 35.5441 23.9134C35.6781 23.7522 35.7461 23.5512 35.7358 23.3469C35.7255 23.1426 35.6376 22.9485 35.488 22.8C35.3384 22.6514 35.1372 22.5582 34.9207 22.5373C35.1441 22.5242 35.3535 22.4305 35.5053 22.2759C35.6571 22.1212 35.7396 21.9175 35.7357 21.7071C35.7317 21.4967 35.6416 21.2958 35.4841 21.1463C35.3265 20.9968 35.1138 20.9102 34.89 20.9044C34.6662 20.8987 34.4487 20.9743 34.2828 21.1155C34.1168 21.2567 34.0151 21.4526 33.999 21.6625C33.9828 21.8724 34.0534 22.08 34.196 22.2422C34.3386 22.4044 34.5422 22.5087 34.7645 22.5333C34.5679 22.5443 34.3804 22.6153 34.2305 22.7354C34.0806 22.8556 33.9764 23.0184 33.9338 23.1992C33.8912 23.38 33.9124 23.569 33.9943 23.7374C34.0761 23.9058 34.2142 24.0446 34.3875 24.1327C34.2146 24.1607 34.0533 24.2329 33.921 24.3412C33.7888 24.4496 33.6908 24.5901 33.6377 24.7472C33.5846 24.9044 33.5785 25.0723 33.62 25.2325C33.6615 25.3927 33.749 25.5392 33.873 25.6558C33.7087 25.6766 33.5524 25.7352 33.418 25.8264C33.2836 25.9177 33.1754 26.0387 33.1028 26.1788C33.0302 26.319 32.9957 26.4738 33.0021 26.6295C33.0086 26.7852 33.056 26.937 33.1399 27.0713C32.8702 27.0847 32.6162 27.1948 32.4302 27.379C32.2442 27.5631 32.1404 27.8072 32.1401 28.0611C32.1402 28.1587 32.1563 28.2557 32.1877 28.3486C32.1717 28.3466 32.1556 28.3455 32.1395 28.3452C31.8467 28.3453 31.5659 28.4547 31.3588 28.6493C31.1518 28.844 31.0354 29.1079 31.0353 29.3832C31.0354 29.408 31.0369 29.4328 31.0399 29.4575C30.9825 29.4485 30.9245 29.444 30.8663 29.4439C30.5896 29.4436 30.3221 29.5373 30.1129 29.7076C29.9038 29.878 29.7671 30.1136 29.728 30.3712C29.6255 30.3451 29.5199 30.3315 29.4137 30.3308C29.1856 30.331 28.9623 30.3923 28.7699 30.5075C28.5774 30.6227 28.4239 30.7871 28.3273 30.9813C28.2021 30.8854 28.0552 30.8179 27.8978 30.784C27.7404 30.7502 27.5769 30.7509 27.4198 30.7861C27.2628 30.8214 27.1165 30.8902 26.9924 30.9872C26.8682 31.0842 26.7695 31.2069 26.704 31.3456C26.5901 31.2291 26.4481 31.14 26.2901 31.0856C26.132 31.0312 25.9624 31.0131 25.7954 31.0329C25.6284 31.0527 25.4689 31.1097 25.3301 31.1993C25.1914 31.2888 25.0774 31.4082 24.9977 31.5476C24.9034 31.4367 24.7848 31.3461 24.6501 31.2818C24.5154 31.2176 24.3676 31.1812 24.2166 31.1752C24.0657 31.1691 23.9151 31.1936 23.7751 31.2468C23.635 31.3 23.5087 31.3808 23.4047 31.4838C23.3402 31.3504 23.2451 31.232 23.1263 31.1371C23.0076 31.0423 22.868 30.9732 22.7175 30.9349C22.5671 30.8966 22.4095 30.89 22.256 30.9156C22.1025 30.9411 21.9569 30.9982 21.8296 31.0828C21.7951 30.9388 21.7269 30.8039 21.63 30.6878C21.533 30.5717 21.4099 30.4773 21.2694 30.4115C21.1289 30.3457 20.9746 30.3101 20.8176 30.3073C20.6606 30.3044 20.505 30.3345 20.3619 30.3952C20.3576 30.2539 20.3211 30.115 20.255 29.9879C20.1889 29.8609 20.0946 29.7486 19.9786 29.6586C19.8625 29.5687 19.7273 29.5031 19.582 29.4662C19.4368 29.4294 19.2848 29.4222 19.1363 29.4452C19.1723 29.3004 19.1731 29.1498 19.1389 29.0047C19.1047 28.8595 19.0362 28.7234 18.9386 28.6064C18.841 28.4895 18.7167 28.3946 18.5749 28.3287C18.433 28.2629 18.2773 28.2279 18.1191 28.2262C18.1794 28.096 18.2093 27.9553 18.2067 27.8133C18.2042 27.6714 18.1692 27.5317 18.1042 27.4036C18.0392 27.2755 17.9457 27.1619 17.83 27.0707C17.7144 26.9795 17.5792 26.9127 17.4337 26.8748C17.5257 26.7626 17.5911 26.6333 17.6255 26.4954C17.6599 26.3575 17.6626 26.2143 17.6334 26.0753C17.6042 25.9364 17.5437 25.8049 17.456 25.6897C17.3683 25.5746 17.2554 25.4783 17.1249 25.4075C17.2491 25.3179 17.3507 25.2035 17.4222 25.0725C17.4937 24.9416 17.5335 24.7973 17.5385 24.6502C17.5436 24.5031 17.5139 24.3567 17.4516 24.2217C17.3893 24.0866 17.2958 23.9663 17.1781 23.8692C17.3145 23.8047 17.4345 23.7133 17.53 23.6013C17.6256 23.4892 17.6943 23.3592 17.7316 23.22C17.7686 23.0817 17.7733 22.9375 17.7454 22.7974C17.7175 22.6572 17.6576 22.5244 17.5699 22.4081C17.7158 22.3772 17.8532 22.3176 17.9727 22.2331C18.0923 22.1485 18.1914 22.0411 18.2635 21.9178C18.3356 21.7946 18.379 21.6583 18.3908 21.5181C18.4026 21.3779 18.3826 21.237 18.3321 21.1046C18.4887 21.1121 18.6452 21.0868 18.7901 21.0306C18.9351 20.9743 19.0649 20.8884 19.1702 20.7792C19.2755 20.67 19.3537 20.5401 19.3991 20.399C19.4445 20.2579 19.4559 20.1091 19.4326 19.9633C19.5806 19.9974 19.7346 20.0012 19.8842 19.9743C20.0338 19.9474 20.1754 19.8905 20.2995 19.8075C20.4236 19.7245 20.5272 19.6173 20.6032 19.4932C20.6792 19.3691 20.7258 19.2311 20.7399 19.0885C20.8732 19.1543 21.02 19.1925 21.1703 19.2006C21.3206 19.2088 21.4711 19.1866 21.6115 19.1357C21.752 19.0848 21.8793 19.0062 21.9849 18.9053C22.0905 18.8044 22.1719 18.6835 22.2237 18.5506C22.3328 18.6438 22.4617 18.7142 22.6018 18.7572C22.742 18.8003 22.8902 18.815 23.0368 18.8004C23.1968 18.7861 23.351 18.7373 23.4876 18.6578C23.6242 18.5783 23.7394 18.4703 23.8243 18.3421C23.9122 18.4602 24.0264 18.559 24.159 18.6314C24.2916 18.7038 24.4394 18.7481 24.5921 18.7613C24.7449 18.7744 24.8988 18.7561 25.0432 18.7076C25.1876 18.659 25.319 18.5814 25.4282 18.4802C25.4861 18.617 25.5757 18.7399 25.6904 18.84C25.8051 18.9402 25.9421 19.015 26.0915 19.0592C26.2408 19.1033 26.3987 19.1157 26.5538 19.0953C26.7088 19.0749 26.8571 19.0223 26.9878 18.9414C27.0172 19.0861 27.0802 19.223 27.1726 19.3421C27.2649 19.4612 27.3841 19.5596 27.5217 19.6302H27.5197C27.7505 19.7497 28.0206 19.7836 28.2767 19.7252C28.3053 19.7622 28.3358 19.798 28.3673 19.8313C28.3807 20.0513 28.4733 20.2604 28.6298 20.4244C28.6367 20.4317 28.6441 20.4384 28.6521 20.4445C29.1912 20.9747 30.4424 22.2619 30.2084 23.9852C30.149 24.4146 30.4053 24.6314 30.7334 24.2995C32.7203 22.2863 32.4092 19.8134 32.3646 19.5259C32.354 19.3418 32.3105 19.1607 32.2359 18.9901C32.2592 18.8835 32.2711 18.775 32.2714 18.6662C32.2714 18.42 32.2108 18.1771 32.0946 17.9565C31.9783 17.7358 31.8094 17.5434 31.601 17.3942C31.6205 17.2989 31.6305 17.2022 31.6309 17.1051C31.631 16.7997 31.5339 16.5012 31.3522 16.248C31.1705 15.9947 30.9124 15.7984 30.611 15.6841C30.6041 15.3399 30.4684 15.009 30.2277 14.7495C29.987 14.49 29.6567 14.3185 29.2949 14.2652C29.2318 13.9449 29.0514 13.6554 28.7851 13.447C28.5188 13.2385 28.1833 13.1242 27.8367 13.1239C27.8098 13.1239 27.7852 13.1264 27.7566 13.1273C27.6652 12.8619 27.4867 12.6306 27.2467 12.4666C27.0067 12.3025 26.7176 12.2142 26.4208 12.2143C26.3014 12.2143 26.1825 12.229 26.0671 12.2581C25.9933 12.106 25.8878 11.9694 25.7569 11.8563C25.626 11.7432 25.4723 11.6559 25.3049 11.5995C25.1375 11.5431 24.9598 11.5188 24.7823 11.5281C24.6048 11.5373 24.431 11.5798 24.2712 11.6532C24.18 11.5075 24.0566 11.3819 23.9094 11.2848C23.7621 11.1877 23.5945 11.1214 23.4177 11.0904C23.2409 11.0593 23.059 11.0643 22.8845 11.1049C22.7099 11.1454 22.5465 11.2207 22.4055 11.3256C22.2998 11.1875 22.1614 11.0743 22.0014 10.9948C21.8413 10.9153 21.6639 10.8718 21.4829 10.8675C21.3019 10.8633 21.1224 10.8985 20.9583 10.9704C20.7942 11.0422 20.6501 11.1488 20.5371 11.2818C20.4208 11.1465 20.2696 11.0415 20.0978 10.9767C19.9261 10.912 19.7395 10.8897 19.556 10.912C19.3725 10.9343 19.1981 11.0004 19.0495 11.1041C18.9009 11.2078 18.783 11.3456 18.7072 11.5042C18.5818 11.3643 18.4155 11.2621 18.2289 11.2101C18.0423 11.1582 17.8436 11.1588 17.6574 11.2119C17.4712 11.265 17.3057 11.3683 17.1813 11.509C17.0569 11.6496 16.9791 11.8215 16.9576 12.0033C16.8642 11.8886 16.7413 11.7982 16.6004 11.7406C16.4595 11.683 16.3054 11.6602 16.1525 11.6742C15.9996 11.6882 15.853 11.7386 15.7267 11.8207C15.6003 11.9028 15.4982 12.0138 15.4302 12.1433C15.3622 12.2728 15.3304 12.4164 15.3379 12.5607C15.3454 12.7049 15.3918 12.845 15.4729 12.9676C15.554 13.0902 15.667 13.1914 15.8013 13.2616C15.9356 13.3317 16.0867 13.3685 16.2403 13.3685ZM10.1584 35.3194C10.1492 35.3195 10.1402 35.3213 10.1318 35.3247C10.1234 35.3281 10.1158 35.333 10.1095 35.3392C10.1031 35.3454 10.0981 35.3526 10.0947 35.3606C10.0913 35.3686 10.0897 35.3771 10.0898 35.3857C10.0898 35.403 10.097 35.4196 10.1098 35.432C10.1226 35.4443 10.14 35.4515 10.1584 35.452C10.1771 35.4519 10.1951 35.4449 10.2084 35.4325C10.2218 35.4201 10.2295 35.4033 10.2299 35.3857C10.2297 35.368 10.2221 35.3511 10.2087 35.3387C10.1953 35.3262 10.1772 35.3193 10.1584 35.3194ZM9.34134 33.7882C9.323 33.7881 9.30482 33.7915 9.28785 33.798C9.27087 33.8045 9.25544 33.8141 9.24242 33.8263C9.22941 33.8384 9.21907 33.8529 9.212 33.8688C9.20493 33.8847 9.20127 33.9018 9.20123 33.919C9.20123 33.9539 9.21596 33.9873 9.24217 34.0119C9.26839 34.0366 9.30394 34.0504 9.34101 34.0504C9.37809 34.0504 9.41364 34.0366 9.43985 34.0119C9.46607 33.9873 9.4808 33.9539 9.4808 33.919C9.48084 33.9018 9.47726 33.8847 9.47026 33.8688C9.46327 33.8529 9.45299 33.8385 9.44003 33.8263C9.42706 33.8142 9.41167 33.8045 9.39473 33.798C9.3778 33.7915 9.35965 33.7881 9.34134 33.7882ZM8.69066 32.1843C8.64909 32.1842 8.60843 32.1957 8.57382 32.2174C8.53921 32.239 8.5122 32.2698 8.4962 32.3059C8.4802 32.342 8.47593 32.3817 8.48393 32.42C8.49193 32.4584 8.51184 32.4936 8.54114 32.5214C8.57045 32.5491 8.60783 32.568 8.64858 32.5758C8.68932 32.5835 8.7316 32.5798 8.77007 32.5649C8.80853 32.5501 8.84147 32.5249 8.86471 32.4925C8.88796 32.4601 8.90047 32.422 8.90066 32.3829C8.90075 32.3304 8.87869 32.28 8.83933 32.2428C8.79996 32.2055 8.7465 32.1845 8.69066 32.1843ZM8.2152 30.5254C8.15987 30.5255 8.10582 30.541 8.05988 30.57C8.01393 30.599 7.97816 30.6402 7.95708 30.6882C7.93599 30.7363 7.93054 30.7892 7.94142 30.8402C7.95229 30.8912 7.979 30.938 8.01817 30.9748C8.05734 31.0115 8.10721 31.0365 8.16149 31.0466C8.21577 31.0567 8.27201 31.0515 8.32312 31.0315C8.37422 31.0116 8.4179 30.9779 8.44862 30.9346C8.47935 30.8914 8.49575 30.8405 8.49575 30.7885C8.49579 30.7539 8.48856 30.7196 8.47447 30.6876C8.46038 30.6556 8.4397 30.6266 8.41364 30.6021C8.38757 30.5777 8.35662 30.5583 8.32256 30.5452C8.28851 30.532 8.25202 30.5253 8.2152 30.5254ZM8.27098 29.158C8.27118 29.0928 8.25076 29.029 8.21233 28.9746C8.1739 28.9203 8.11918 28.878 8.0551 28.8529C7.99103 28.8279 7.92048 28.8213 7.85241 28.8339C7.78434 28.8466 7.72181 28.878 7.67274 28.9241C7.62367 28.9703 7.59027 29.0291 7.57678 29.093C7.56329 29.157 7.57031 29.2233 7.59696 29.2836C7.62361 29.3438 7.66868 29.3953 7.72646 29.4314C7.78424 29.4675 7.85213 29.4867 7.92152 29.4865C8.01415 29.4864 8.10294 29.4517 8.16844 29.3901C8.23393 29.3285 8.27081 29.2451 8.27098 29.158ZM8.23325 27.5053C8.23305 27.4273 8.20827 27.351 8.16202 27.2862C8.11577 27.2213 8.05013 27.1708 7.97339 27.141C7.89664 27.1112 7.81222 27.1035 7.73079 27.1187C7.64935 27.134 7.57455 27.1716 7.51581 27.2267C7.45707 27.2819 7.41703 27.3522 7.40074 27.4287C7.38446 27.5053 7.39265 27.5846 7.42429 27.6568C7.45593 27.729 7.50961 27.7907 7.57853 27.8342C7.64746 27.8778 7.72856 27.9011 7.8116 27.9014C7.867 27.9016 7.9219 27.8915 7.97314 27.8716C8.02437 27.8518 8.07092 27.8227 8.11012 27.7858C8.14931 27.749 8.18036 27.7053 8.2015 27.6571C8.22263 27.609 8.23342 27.5574 8.23325 27.5053ZM7.39881 25.8529C7.39888 25.944 7.42765 26.0329 7.48149 26.1086C7.53533 26.1843 7.61183 26.2433 7.70131 26.2781C7.79079 26.3129 7.88925 26.322 7.98424 26.3043C8.07924 26.2865 8.1665 26.2427 8.235 26.1784C8.30351 26.114 8.35019 26.032 8.36914 25.9427C8.38809 25.8534 8.37846 25.7609 8.34147 25.6767C8.30448 25.5926 8.2418 25.5206 8.16133 25.47C8.08086 25.4193 7.98622 25.3922 7.88937 25.3921C7.82491 25.3919 7.76105 25.4037 7.70146 25.4267C7.64187 25.4498 7.58772 25.4838 7.54213 25.5266C7.49653 25.5694 7.4604 25.6203 7.43581 25.6763C7.41121 25.7323 7.39864 25.7923 7.39881 25.8529ZM8.15253 24.7428C8.26333 24.7426 8.37159 24.7116 8.46362 24.6536C8.55566 24.5956 8.62734 24.5132 8.66961 24.4169C8.71188 24.3206 8.72283 24.2147 8.7011 24.1126C8.67936 24.0105 8.62591 23.9167 8.54749 23.8431C8.46907 23.7695 8.36921 23.7194 8.26052 23.6992C8.15183 23.6789 8.03919 23.6894 7.93684 23.7293C7.83449 23.7692 7.74702 23.8367 7.68548 23.9234C7.62394 24.01 7.5911 24.1118 7.5911 24.216C7.59105 24.2852 7.60555 24.3538 7.63376 24.4178C7.66197 24.4818 7.70334 24.54 7.7555 24.5889C7.80765 24.6378 7.86957 24.6766 7.9377 24.703C8.00583 24.7294 8.07883 24.743 8.15253 24.7428ZM8.63488 22.0321C8.51017 22.0319 8.3882 22.0665 8.28441 22.1315C8.18062 22.1965 8.09968 22.289 8.05182 22.3972C8.00396 22.5055 7.99134 22.6247 8.01555 22.7397C8.03976 22.8547 8.09971 22.9603 8.18783 23.0433C8.27594 23.1263 8.38826 23.1828 8.51056 23.2057C8.63286 23.2287 8.75965 23.217 8.87488 23.1722C8.99012 23.1273 9.08862 23.0514 9.15793 22.9539C9.22724 22.8565 9.26423 22.7419 9.26423 22.6246C9.26414 22.4677 9.19784 22.3171 9.07986 22.2061C8.96188 22.095 8.80186 22.0324 8.63488 22.0321ZM9.33412 21.7647C9.47283 21.765 9.60851 21.7266 9.72399 21.6544C9.83948 21.5821 9.92956 21.4793 9.98286 21.3589C10.0361 21.2386 10.0502 21.106 10.0234 20.9781C9.99647 20.8502 9.92982 20.7326 9.83183 20.6404C9.73384 20.5481 9.60893 20.4852 9.4729 20.4597C9.33688 20.4342 9.19586 20.4472 9.0677 20.497C8.93954 20.5469 8.83 20.6314 8.75295 20.7398C8.6759 20.8482 8.63481 20.9757 8.63488 21.1061C8.63496 21.2805 8.70862 21.4478 8.8397 21.5713C8.97077 21.6947 9.14858 21.7643 9.33412 21.7647Z" fill="white"/>
<path d="M10.2428 20.4141C10.3951 20.4138 10.544 20.3711 10.6705 20.2913C10.7969 20.2115 10.8954 20.0982 10.9535 19.9658C11.0115 19.8334 11.0265 19.6878 10.9965 19.5474C10.9666 19.407 10.893 19.2781 10.7851 19.177C10.6772 19.0759 10.5399 19.0071 10.3905 18.9794C10.241 18.9516 10.0862 18.9661 9.94548 19.0211C9.80481 19.076 9.68462 19.169 9.60012 19.2881C9.51561 19.4073 9.47057 19.5473 9.4707 19.6905C9.47062 19.7857 9.49054 19.88 9.52934 19.968C9.56814 20.056 9.62505 20.1359 9.69679 20.2031C9.76853 20.2704 9.8537 20.3236 9.9474 20.3598C10.0411 20.396 10.1415 20.4145 10.2428 20.4141ZM12.1797 18.3962C12.1798 18.24 12.1306 18.0872 12.0383 17.9573C11.946 17.8274 11.8148 17.7261 11.6613 17.6662C11.5078 17.6064 11.3388 17.5907 11.1758 17.6211C11.0128 17.6515 10.863 17.7267 10.7454 17.8371C10.6279 17.9475 10.5478 18.0883 10.5153 18.2415C10.4828 18.3947 10.4994 18.5536 10.5629 18.6979C10.6264 18.8423 10.7341 18.9657 10.8723 19.0526C11.0104 19.1394 11.1729 19.1858 11.3391 19.1859C11.5619 19.1858 11.7756 19.1026 11.9332 18.9545C12.0908 18.8065 12.1795 18.6057 12.1797 18.3962Z" fill="white"/>
<rect x="1.2" y="1.2" width="45.6" height="45.6" rx="22.8" stroke="white" stroke-width="2.4"/>
</svg>
